<svg id="Layer_1" data-name="Layer 1" xmlns="http://www.w3.org/2000/svg" viewBox="0 0 1920 1080"><defs><style>.cls-1{fill:#f7f7f7;}.cls-2{fill:#fed10a;}.cls-3{fill:#00a9e5;}.cls-4{fill:#eb0d72;}.cls-5{fill:#01c0b3;}.cls-10,.cls-11,.cls-12,.cls-14,.cls-6,.cls-8,.cls-9{fill:none;}.cls-6{stroke:#000;}.cls-10,.cls-11,.cls-12,.cls-13,.cls-14,.cls-6,.cls-8,.cls-9{stroke-miterlimit:10;}.cls-7{fill:#13a7df;}.cls-10,.cls-11,.cls-12,.cls-13,.cls-14,.cls-8,.cls-9{stroke:#3fa9f5;}.cls-10,.cls-11,.cls-12,.cls-8,.cls-9{stroke-width:3px;}.cls-8{stroke-dasharray:21.96 11.98;}.cls-10{stroke-dasharray:21.95 11.97;}.cls-11{stroke-dasharray:21.96 11.98;}.cls-12{stroke-dasharray:21.96 11.98;}.cls-13{fill:#3fa9f5;}.cls-13,.cls-14{stroke-width:0.75px;}</style></defs><title>Artboard 1</title><rect class="cls-1" x="-56" y="-90" width="2056" height="1227"/><polygon class="cls-2" points="-196 181.08 -196 361 188.67 361 -196 181.08"/><polygon class="cls-2" points="1725.33 180.5 2109.5 360.5 1725.17 360.5 1725.33 180.5"/><polygon class="cls-3" points="573 0.08 572.67 180 956.73 180 573 0.08"/><polygon class="cls-4" points="957 900.07 957 1080 1341.3 1080.12 957 900.07"/><polygon class="cls-5" points="188.5 540.38 188.5 720.34 573 720.5 188.5 540.38"/><rect class="cls-6" x="-195.5" y="0.5" width="2305" height="1080"/><line class="cls-6" x1="-195.5" y1="900.5" x2="2109.5" y2="900.5"/><line class="cls-6" x1="-195.5" y1="720.5" x2="2109.5" y2="720.5"/><line class="cls-6" x1="-195.5" y1="540.5" x2="2109.5" y2="540.5"/><polyline class="cls-6" points="1725.33 180.5 1725.17 360.5 2109.5 360.5 -195.5 360.5"/><line class="cls-6" x1="-195.5" y1="180.5" x2="2109.5" y2="180.5"/><line class="cls-6" x1="1725.33" y1="0.5" x2="1725.33" y2="1080.5"/><line class="cls-6" x1="1341.17" y1="1080.5" x2="1341.17" y2="0.5"/><line class="cls-6" x1="957" y1="0.5" x2="957" y2="1080.5"/><line class="cls-6" x1="572.83" y1="0.5" x2="572.83" y2="1080.5"/><line class="cls-6" x1="188.67" y1="0.5" x2="188.67" y2="1080.5"/><line class="cls-6" x1="188.5" y1="0.5" x2="2109.5" y2="900.5"/><line class="cls-6" x1="957.5" y1="0.5" x2="2109.5" y2="540.5"/><line class="cls-6" x1="1725.5" y1="0.5" x2="2109.5" y2="180.5"/><line class="cls-6" x1="-195.5" y1="179.5" x2="1725.5" y2="1080.5"/><line class="cls-6" x1="-195.5" y1="539.5" x2="957.5" y2="1080.5"/><line class="cls-7" x1="-195.5" y1="0.5" x2="2109.5" y2="1080.5"/><line class="cls-8" x1="-174.69" y1="10.25" x2="2094.12" y2="1073.29"/><line class="cls-7" x1="573.5" y1="0.5" x2="2109.5" y2="720.5"/><line class="cls-9" x1="573.5" y1="0.5" x2="583.46" y2="5.17"/><line class="cls-10" x1="594.3" y1="10.25" x2="2094.12" y2="713.29"/><line class="cls-7" x1="-195.14" y1="360.38" x2="1341.86" y2="1080.38"/><line class="cls-11" x1="-174.33" y1="370.13" x2="1326.47" y2="1073.17"/><line class="cls-9" x1="1331.9" y1="1075.71" x2="1341.86" y2="1080.38"/><line class="cls-7" x1="-195.5" y1="719.5" x2="572.5" y2="1080.5"/><line class="cls-12" x1="-174.7" y1="729.28" x2="557.12" y2="1073.27"/><line class="cls-9" x1="562.54" y1="1075.82" x2="572.5" y2="1080.5"/><line class="cls-6" x1="-195.5" y1="900.5" x2="188.5" y2="1080.5"/><line class="cls-6" x1="1341.5" y1="0.5" x2="2109.5" y2="360.5"/><circle class="cls-5" cx="189" cy="181" r="15"/><circle class="cls-2" cx="957" cy="541" r="15"/><circle class="cls-5" cx="1341" cy="901" r="15"/><circle class="cls-3" cx="189" cy="901" r="15"/><circle class="cls-4" cx="1341" cy="180" r="15"/><circle class="cls-5" cx="1725" cy="541" r="15"/><line class="cls-3" x1="957" y1="541" x2="1341" y2="180"/><line class="cls-13" x1="957" y1="541" x2="1341" y2="180"/><line class="cls-14" x1="1340.5" y1="900.5" x2="1724.5" y2="540.5"/><line class="cls-14" x1="1340.5" y1="180.5" x2="1724.5" y2="540.5"/><line class="cls-14" x1="956.5" y1="541.5" x2="188.5" y2="901.5"/><line class="cls-14" x1="1724.5" y1="540.5" x2="188.5" y2="180.5"/><line class="cls-14" x1="1340.5" y1="900.5" x2="188.5" y2="180.5"/><line class="cls-14" x1="1724.5" y1="540.5" x2="188.5" y2="901.5"/></svg>