<svg id="Layer_1" data-name="Layer 1" xmlns="http://www.w3.org/2000/svg" viewBox="0 0 382 382"><defs><style>.cls-1{fill:#0077b7;}</style></defs><title>cv</title><path class="cls-1" d="M347.45,0H34.55A34.56,34.56,0,0,0,0,34.55V347.44A34.56,34.56,0,0,0,34.55,382H347.44A34.56,34.56,0,0,0,382,347.44V34.55A34.56,34.56,0,0,0,347.45,0ZM171,239.94a59.59,59.59,0,0,1-12.32,17.47,63,63,0,0,1-21.45,13.92q-13.05,5.35-30.42,5.35a110.39,110.39,0,0,1-24-2.4A68.77,68.77,0,0,1,63.3,266.8a65.41,65.41,0,0,1-16.18-13.38,79.19,79.19,0,0,1-11.24-16.87,85.56,85.56,0,0,1-7-19.93,104.58,104.58,0,0,1-2.33-22.49q0-19.33,5.85-34.61a72.61,72.61,0,0,1,42.28-42.69,85.61,85.61,0,0,1,31.22-5.68q20.2,0,36,7.75t24.18,19.16q8.4,11.41,8.4,21.56a13.77,13.77,0,0,1-4.09,9.83,13.19,13.19,0,0,1-9.88,4.26q-6.47,0-9.71-2.95t-7.21-10.15q-6.58-11.9-15.49-17.8t-22-5.9q-20.77,0-33.09,15.18T60.75,195.23q0,18.67,5.45,31.06T81.63,244.8q10,6.12,23.38,6.11,14.53,0,24.58-6.93t15.15-20.36a34,34,0,0,1,5.33-10.32q3.18-4,10.22-4a14.59,14.59,0,0,1,10.33,4,13.2,13.2,0,0,1,4.31,10A41.31,41.31,0,0,1,171,239.94ZM352.44,130.87a45.63,45.63,0,0,1-1.7,5.46q-1,2.68-2,5.51l-40.3,104.6q-2.16,6-4.31,11.41a47.68,47.68,0,0,1-5,9.5,22.05,22.05,0,0,1-7.55,6.71A23.4,23.4,0,0,1,280,276.68a23.82,23.82,0,0,1-11.52-2.57,21.61,21.61,0,0,1-7.61-6.77,49.14,49.14,0,0,1-5.05-9.55q-2.16-5.35-4.31-11.36L211.91,142.71q-1-2.84-2.1-5.57a41.51,41.51,0,0,1-1.82-5.9,24.19,24.19,0,0,1-.74-5.35q0-5.57,4.65-10.15a16,16,0,0,1,11.69-4.59q8.63,0,12.2,5.08t7.32,16.21l37.69,107.33,37.8-108.09q3-8.52,4.43-11.85a15.88,15.88,0,0,1,4.88-6q3.41-2.67,9.31-2.67a16.07,16.07,0,0,1,8,2.07,15.62,15.62,0,0,1,5.79,5.51,13.19,13.19,0,0,1,2.1,6.93A21.89,21.89,0,0,1,352.44,130.87Z"/></svg>