<?xml version="1.0" encoding="UTF-8" standalone="no"?>
<svg width="458px" height="471px" viewBox="0 0 458 471" version="1.1" xmlns="http://www.w3.org/2000/svg" xmlns:xlink="http://www.w3.org/1999/xlink">
    <!-- Generator: Sketch 3.8.3 (29802) - http://www.bohemiancoding.com/sketch -->
    <title>Group 2</title>
    <desc>Created with Sketch.</desc>
    <defs></defs>
    <g id="Page-1" stroke="none" stroke-width="1" fill="none" fill-rule="evenodd">
        <g id="Cloud-Overview-Page-1" transform="translate(-1.000000, -462.000000)">
            <g id="Group-2" transform="translate(-23.000000, 462.000000)">
                <g id="Page-1" transform="translate(191.000000, 302.000000)">
                    <path d="M4.09970526,2.23424726 C4.09970526,3.2608592 3.26602105,4.09324726 2.23781053,4.09324726 C1.20875789,4.09324726 0.375073684,3.2608592 0.375073684,2.23424726 C0.375073684,1.20763532 1.20875789,0.375247264 2.23781053,0.375247264 C3.26602105,0.375247264 4.09970526,1.20763532 4.09970526,2.23424726" id="Fill-1" fill="#FED109"></path>
                    <path d="M4.09970526,2.23424726 C4.09970526,3.2608592 3.26602105,4.09324726 2.23781053,4.09324726 C1.20875789,4.09324726 0.375073684,3.2608592 0.375073684,2.23424726 C0.375073684,1.20763532 1.20875789,0.375247264 2.23781053,0.375247264 C3.26602105,0.375247264 4.09970526,1.20763532 4.09970526,2.23424726 L4.09970526,2.23424726 Z" id="Stroke-3" stroke="#FED109" stroke-width="0.891"></path>
                    <path d="M50.7442526,2.23424726 C50.7442526,3.2608592 49.9105684,4.09324726 48.8823579,4.09324726 C47.8533053,4.09324726 47.0196211,3.2608592 47.0196211,2.23424726 C47.0196211,1.20763532 47.8533053,0.375247264 48.8823579,0.375247264 C49.9105684,0.375247264 50.7442526,1.20763532 50.7442526,2.23424726" id="Fill-5" fill="#FED109"></path>
                    <path d="M50.7442526,2.23424726 C50.7442526,3.2608592 49.9105684,4.09324726 48.8823579,4.09324726 C47.8533053,4.09324726 47.0196211,3.2608592 47.0196211,2.23424726 C47.0196211,1.20763532 47.8533053,0.375247264 48.8823579,0.375247264 C49.9105684,0.375247264 50.7442526,1.20763532 50.7442526,2.23424726 L50.7442526,2.23424726 Z" id="Stroke-7" stroke="#FED109" stroke-width="0.891"></path>
                    <path d="M95.9797895,2.61647313 C95.9797895,3.64308507 95.1461053,4.47547313 94.1178947,4.47547313 C93.0888421,4.47547313 92.2551579,3.64308507 92.2551579,2.61647313 C92.2551579,1.58986119 93.0888421,0.757473134 94.1178947,0.757473134 C95.1461053,0.757473134 95.9797895,1.58986119 95.9797895,2.61647313" id="Fill-9" fill="#FED109"></path>
                    <path d="M95.9797895,2.61647313 C95.9797895,3.64308507 95.1461053,4.47547313 94.1178947,4.47547313 C93.0888421,4.47547313 92.2551579,3.64308507 92.2551579,2.61647313 C92.2551579,1.58986119 93.0888421,0.757473134 94.1178947,0.757473134 C95.1461053,0.757473134 95.9797895,1.58986119 95.9797895,2.61647313 L95.9797895,2.61647313 Z" id="Stroke-11" stroke="#FED109" stroke-width="0.891"></path>
                    <path d="M4.09970526,35.0079716 C4.09970526,36.0345836 3.26602105,36.8669716 2.23781053,36.8669716 C1.20875789,36.8669716 0.375073684,36.0345836 0.375073684,35.0079716 C0.375073684,33.9813597 1.20875789,33.1489716 2.23781053,33.1489716 C3.26602105,33.1489716 4.09970526,33.9813597 4.09970526,35.0079716" id="Fill-13" fill="#FFE161"></path>
                    <path d="M4.09970526,35.0079716 C4.09970526,36.0345836 3.26602105,36.8669716 2.23781053,36.8669716 C1.20875789,36.8669716 0.375073684,36.0345836 0.375073684,35.0079716 C0.375073684,33.9813597 1.20875789,33.1489716 2.23781053,33.1489716 C3.26602105,33.1489716 4.09970526,33.9813597 4.09970526,35.0079716 L4.09970526,35.0079716 Z" id="Stroke-15" stroke="#FFE161" stroke-width="0.891"></path>
                    <path d="M50.7442526,35.0079716 C50.7442526,36.0345836 49.9105684,36.8669716 48.8823579,36.8669716 C47.8533053,36.8669716 47.0196211,36.0345836 47.0196211,35.0079716 C47.0196211,33.9813597 47.8533053,33.1489716 48.8823579,33.1489716 C49.9105684,33.1489716 50.7442526,33.9813597 50.7442526,35.0079716" id="Fill-17" fill="#FFE161"></path>
                    <path d="M50.7442526,35.0079716 C50.7442526,36.0345836 49.9105684,36.8669716 48.8823579,36.8669716 C47.8533053,36.8669716 47.0196211,36.0345836 47.0196211,35.0079716 C47.0196211,33.9813597 47.8533053,33.1489716 48.8823579,33.1489716 C49.9105684,33.1489716 50.7442526,33.9813597 50.7442526,35.0079716 L50.7442526,35.0079716 Z" id="Stroke-19" stroke="#FFE161" stroke-width="0.891"></path>
                    <path d="M95.9797895,35.3902816 C95.9797895,36.4168935 95.1461053,37.2492816 94.1178947,37.2492816 C93.0888421,37.2492816 92.2551579,36.4168935 92.2551579,35.3902816 C92.2551579,34.3636697 93.0888421,33.5312816 94.1178947,33.5312816 C95.1461053,33.5312816 95.9797895,34.3636697 95.9797895,35.3902816" id="Fill-21" fill="#FFE161"></path>
                    <path d="M95.9797895,35.3902816 C95.9797895,36.4168935 95.1461053,37.2492816 94.1178947,37.2492816 C93.0888421,37.2492816 92.2551579,36.4168935 92.2551579,35.3902816 C92.2551579,34.3636697 93.0888421,33.5312816 94.1178947,33.5312816 C95.1461053,33.5312816 95.9797895,34.3636697 95.9797895,35.3902816 L95.9797895,35.3902816 Z" id="Stroke-23" stroke="#FFE161" stroke-width="0.891"></path>
                    <path d="M4.09970526,67.781696 C4.09970526,68.808308 3.26602105,69.640696 2.23781053,69.640696 C1.20875789,69.640696 0.375073684,68.808308 0.375073684,67.781696 C0.375073684,66.7550841 1.20875789,65.922696 2.23781053,65.922696 C3.26602105,65.922696 4.09970526,66.7550841 4.09970526,67.781696" id="Fill-25" fill="#C0F049"></path>
                    <path d="M4.09970526,67.781696 C4.09970526,68.808308 3.26602105,69.640696 2.23781053,69.640696 C1.20875789,69.640696 0.375073684,68.808308 0.375073684,67.781696 C0.375073684,66.7550841 1.20875789,65.922696 2.23781053,65.922696 C3.26602105,65.922696 4.09970526,66.7550841 4.09970526,67.781696 L4.09970526,67.781696 Z" id="Stroke-27" stroke="#C0F049" stroke-width="0.891"></path>
                    <path d="M50.7442526,67.781696 C50.7442526,68.808308 49.9105684,69.640696 48.8823579,69.640696 C47.8533053,69.640696 47.0196211,68.808308 47.0196211,67.781696 C47.0196211,66.7550841 47.8533053,65.922696 48.8823579,65.922696 C49.9105684,65.922696 50.7442526,66.7550841 50.7442526,67.781696" id="Fill-29" fill="#C0F049"></path>
                    <path d="M50.7442526,67.781696 C50.7442526,68.808308 49.9105684,69.640696 48.8823579,69.640696 C47.8533053,69.640696 47.0196211,68.808308 47.0196211,67.781696 C47.0196211,66.7550841 47.8533053,65.922696 48.8823579,65.922696 C49.9105684,65.922696 50.7442526,66.7550841 50.7442526,67.781696 L50.7442526,67.781696 Z" id="Stroke-31" stroke="#C0F049" stroke-width="0.891"></path>
                    <path d="M95.9797895,68.164006 C95.9797895,69.1906179 95.1461053,70.023006 94.1178947,70.023006 C93.0888421,70.023006 92.2551579,69.1906179 92.2551579,68.164006 C92.2551579,67.137394 93.0888421,66.305006 94.1178947,66.305006 C95.1461053,66.305006 95.9797895,67.137394 95.9797895,68.164006" id="Fill-33" fill="#C0F049"></path>
                    <path d="M95.9797895,68.164006 C95.9797895,69.1906179 95.1461053,70.023006 94.1178947,70.023006 C93.0888421,70.023006 92.2551579,69.1906179 92.2551579,68.164006 C92.2551579,67.137394 93.0888421,66.305006 94.1178947,66.305006 C95.1461053,66.305006 95.9797895,67.137394 95.9797895,68.164006 L95.9797895,68.164006 Z" id="Stroke-35" stroke="#C0F049" stroke-width="0.891"></path>
                    <path d="M4.09970526,100.55542 C4.09970526,101.582032 3.26602105,102.41442 2.23781053,102.41442 C1.20875789,102.41442 0.375073684,101.582032 0.375073684,100.55542 C0.375073684,99.5288085 1.20875789,98.6964204 2.23781053,98.6964204 C3.26602105,98.6964204 4.09970526,99.5288085 4.09970526,100.55542" id="Fill-37" fill="#93C90E"></path>
                    <path d="M4.09970526,100.55542 C4.09970526,101.582032 3.26602105,102.41442 2.23781053,102.41442 C1.20875789,102.41442 0.375073684,101.582032 0.375073684,100.55542 C0.375073684,99.5288085 1.20875789,98.6964204 2.23781053,98.6964204 C3.26602105,98.6964204 4.09970526,99.5288085 4.09970526,100.55542 L4.09970526,100.55542 Z" id="Stroke-39" stroke="#93C90E" stroke-width="0.891"></path>
                    <path d="M50.7442526,100.55542 C50.7442526,101.582032 49.9105684,102.41442 48.8823579,102.41442 C47.8533053,102.41442 47.0196211,101.582032 47.0196211,100.55542 C47.0196211,99.5288085 47.8533053,98.6964204 48.8823579,98.6964204 C49.9105684,98.6964204 50.7442526,99.5288085 50.7442526,100.55542" id="Fill-41" fill="#93C90E"></path>
                    <path d="M50.7442526,100.55542 C50.7442526,101.582032 49.9105684,102.41442 48.8823579,102.41442 C47.8533053,102.41442 47.0196211,101.582032 47.0196211,100.55542 C47.0196211,99.5288085 47.8533053,98.6964204 48.8823579,98.6964204 C49.9105684,98.6964204 50.7442526,99.5288085 50.7442526,100.55542 L50.7442526,100.55542 Z" id="Stroke-43" stroke="#93C90E" stroke-width="0.891"></path>
                    <path d="M95.9797895,100.93773 C95.9797895,101.964342 95.1461053,102.79673 94.1178947,102.79673 C93.0888421,102.79673 92.2551579,101.964342 92.2551579,100.93773 C92.2551579,99.9111184 93.0888421,99.0787303 94.1178947,99.0787303 C95.1461053,99.0787303 95.9797895,99.9111184 95.9797895,100.93773" id="Fill-45" fill="#93C90E"></path>
                    <path d="M95.9797895,100.93773 C95.9797895,101.964342 95.1461053,102.79673 94.1178947,102.79673 C93.0888421,102.79673 92.2551579,101.964342 92.2551579,100.93773 C92.2551579,99.9111184 93.0888421,99.0787303 94.1178947,99.0787303 C95.1461053,99.0787303 95.9797895,99.9111184 95.9797895,100.93773 L95.9797895,100.93773 Z" id="Stroke-47" stroke="#93C90E" stroke-width="0.891"></path>
                    <path d="M50.7442526,133.329229 C50.7442526,134.355841 49.9105684,135.188229 48.8823579,135.188229 C47.8533053,135.188229 47.0196211,134.355841 47.0196211,133.329229 C47.0196211,132.302617 47.8533053,131.470229 48.8823579,131.470229 C49.9105684,131.470229 50.7442526,132.302617 50.7442526,133.329229" id="Fill-49" fill="#31C8FA"></path>
                    <path d="M50.7442526,133.329229 C50.7442526,134.355841 49.9105684,135.188229 48.8823579,135.188229 C47.8533053,135.188229 47.0196211,134.355841 47.0196211,133.329229 C47.0196211,132.302617 47.8533053,131.470229 48.8823579,131.470229 C49.9105684,131.470229 50.7442526,132.302617 50.7442526,133.329229 L50.7442526,133.329229 Z" id="Stroke-51" stroke="#31C8FA" stroke-width="0.891"></path>
                    <path d="M95.9797895,133.711455 C95.9797895,134.738067 95.1461053,135.570455 94.1178947,135.570455 C93.0888421,135.570455 92.2551579,134.738067 92.2551579,133.711455 C92.2551579,132.684843 93.0888421,131.852455 94.1178947,131.852455 C95.1461053,131.852455 95.9797895,132.684843 95.9797895,133.711455" id="Fill-53" fill="#31C8FA"></path>
                    <path d="M95.9797895,133.711455 C95.9797895,134.738067 95.1461053,135.570455 94.1178947,135.570455 C93.0888421,135.570455 92.2551579,134.738067 92.2551579,133.711455 C92.2551579,132.684843 93.0888421,131.852455 94.1178947,131.852455 C95.1461053,131.852455 95.9797895,132.684843 95.9797895,133.711455 L95.9797895,133.711455 Z" id="Stroke-55" stroke="#31C8FA" stroke-width="0.891"></path>
                    <path d="M95.9797895,166.485179 C95.9797895,167.511791 95.1461053,168.344179 94.1178947,168.344179 C93.0888421,168.344179 92.2551579,167.511791 92.2551579,166.485179 C92.2551579,165.458567 93.0888421,164.626179 94.1178947,164.626179 C95.1461053,164.626179 95.9797895,165.458567 95.9797895,166.485179" id="Fill-57" fill="#EC0D72"></path>
                    <path d="M95.9797895,166.485179 C95.9797895,167.511791 95.1461053,168.344179 94.1178947,168.344179 C93.0888421,168.344179 92.2551579,167.511791 92.2551579,166.485179 C92.2551579,165.458567 93.0888421,164.626179 94.1178947,164.626179 C95.1461053,164.626179 95.9797895,165.458567 95.9797895,166.485179 L95.9797895,166.485179 Z" id="Stroke-59" stroke="#EC0D72" stroke-width="0.891"></path>
                </g>
                <g id="Group">
                    <polygon id="Triangle-18" fill="#00BFB3" points="142.577286 50.4988089 166.438321 74.420904 118.719178 74.6024109"></polygon>
                    <polygon id="Triangle-18-Copy" fill="#00BFB3" points="190.628913 98.4759927 215.203847 123.14168 165.887109 123.14168"></polygon>
                    <polygon id="Triangle-18-Copy-2" fill="#92C73D" points="238.118045 1.72932699 263.52836 26.9767593 212.676902 27"></polygon>
                    <g id="Page-1">
                        <path d="M26.6134473,70.7633117 C25.3388444,70.7633117 24.3026314,71.7996364 24.3026314,73.0743766 C24.3026314,74.349987 25.3388444,75.3863117 26.6134473,75.3863117 C27.8889202,75.3863117 28.9251332,74.349987 28.9251332,73.0743766 C28.9251332,71.7996364 27.8889202,70.7633117 26.6134473,70.7633117" id="Fill-3" fill="#31C8FA"></path>
                        <path d="M409.757248,121.409221 C409.333541,120.93761 408.726256,120.634805 408.043277,120.634805 C407.407281,120.634805 406.831317,120.893234 406.41283,121.310896 L385.45975,100.355558 C385.903469,99.9718312 386.195801,99.4262597 386.248003,98.8067273 L429.839422,98.8067273 C429.895974,99.4715065 430.228328,100.051883 430.726858,100.437351 L409.757248,121.409221 Z M385.083025,146.086104 C384.775032,145.932961 384.432238,145.838987 384.065082,145.838987 C383.605703,145.838987 383.180256,145.977338 382.820061,146.208792 L361.145721,124.532117 C361.3641,124.21974 361.497216,123.849935 361.538978,123.452286 L405.791624,123.452286 C405.898638,123.928247 406.155299,124.345039 406.506794,124.660026 L385.083025,146.086104 Z M240.061057,145.741532 L260.740075,125.060286 C261.134201,125.374403 261.626642,125.569312 262.168674,125.569312 C262.722887,125.569312 263.224898,125.365701 263.623375,125.040273 L284.757422,146.176597 C284.070963,146.533351 283.589833,147.219013 283.5211,148.027364 L241.368721,148.027364 C241.374812,147.959494 241.388732,147.895104 241.388732,147.825494 C241.388732,146.903156 240.843219,146.112208 240.061057,145.741532 L240.061057,145.741532 Z M193.176552,148.027364 C193.182642,147.959494 193.197432,147.895104 193.197432,147.825494 C193.197432,147.275571 192.996454,146.776987 192.675411,146.380208 L214.401952,124.651325 C214.736046,124.839273 215.116252,124.955 215.526039,124.955 C215.924516,124.955 216.293411,124.844494 216.620544,124.666987 L237.834635,145.882494 C237.194288,146.294065 236.76623,147.009312 236.76623,147.825494 C236.76623,147.895104 236.781021,147.959494 236.786241,148.027364 L193.176552,148.027364 Z M144.22223,148.027364 C144.254422,147.873351 144.271822,147.714987 144.271822,147.552273 C144.271822,146.842247 143.943819,146.214013 143.438328,145.79026 L164.831645,124.395506 C165.234472,124.739208 165.751274,124.955 166.322017,124.955 C166.911902,124.955 167.445234,124.727026 167.854151,124.361571 L189.486729,145.997351 C188.935996,146.420234 188.574061,147.078922 188.574061,147.825494 C188.574061,147.895104 188.588851,147.959494 188.594942,148.027364 L144.22223,148.027364 Z M94.6919451,148.027364 C95.0034181,147.633195 95.1965661,147.143312 95.1965661,146.602961 C95.1965661,146.117429 95.0451798,145.668442 94.7893892,145.296026 L115.871234,124.211909 C116.245349,124.472948 116.697768,124.627831 117.188469,124.627831 C117.865357,124.627831 118.470032,124.329377 118.892869,123.863857 L140.665523,145.638857 C140.053017,146.054779 139.649321,146.756974 139.649321,147.552273 C139.649321,147.714987 139.666721,147.873351 139.698913,148.027364 L94.6919451,148.027364 Z M71.1652989,124.050935 C71.361057,123.88039 71.5254939,123.67939 71.6542592,123.452286 L115.186516,123.452286 C115.29353,123.639364 115.417945,123.81426 115.571071,123.964792 L94.5414289,144.995831 C94.1212014,144.562506 93.5356671,144.291026 92.8857502,144.291026 C92.4611726,144.291026 92.0679162,144.413714 91.7259921,144.613844 L71.1652989,124.050935 Z M47.5264181,100.409506 C47.8996635,99.9988052 48.1328332,99.4584545 48.1328332,98.8606753 C48.1328332,98.8424026 48.128483,98.825 48.127613,98.8067273 L91.7625336,98.8067273 C91.7781942,99.3749221 92.0009235,99.8882987 92.3558982,100.283338 L71.5863964,121.055078 C71.1731292,120.424234 70.4623097,120.004831 69.6540462,120.004831 C68.9588874,120.004831 68.3429018,120.318078 67.9191942,120.804481 L47.5264181,100.409506 Z M68.9423567,76.5331429 C69.3173422,76.7959221 69.770631,76.9516753 70.2622014,76.9516753 C70.7502917,76.9516753 71.2009704,76.7985325 71.5742159,76.5392338 L92.302826,97.2700779 C92.0331148,97.592026 91.8512773,97.9844545 91.7895047,98.4195195 L48.0884614,98.4195195 C48.0371292,98.1523896 47.9335949,97.9061429 47.7978693,97.6799091 L68.9423567,76.5331429 Z M93.3755805,52.0981558 C93.7940679,52.5201688 94.3735119,52.7820779 95.0138585,52.7820779 C95.3818838,52.7820779 95.725548,52.6881039 96.0344108,52.5340909 L116.595104,73.0978701 C116.272321,73.4554935 116.064382,73.9123117 116.01479,74.4187273 L72.5503964,74.4187273 C72.5112448,74.0132468 72.3763892,73.6373506 72.15453,73.3206234 L93.3755805,52.0981558 Z M140.630721,51.516039 C140.690754,51.6161039 140.759487,51.7100779 140.83344,51.7997013 L119.768996,72.8664156 C119.368779,72.5357662 118.862418,72.3286753 118.303855,72.3286753 C117.763562,72.3286753 117.272862,72.5227143 116.878736,72.8342208 L96.376335,52.3287403 C96.665187,52.1164286 96.8992267,51.837987 97.0645336,51.516039 L140.630721,51.516039 Z M189.386674,4.623 C189.828653,4.623 190.2367,4.49248052 190.588194,4.27668831 L211.248942,24.9396623 C210.951389,25.3286104 210.766942,25.8097922 210.766942,26.3362208 C210.766942,26.4667403 210.784342,26.5911688 210.805223,26.7155974 L168.30309,26.7155974 C168.260458,26.2204935 168.06557,25.7741169 167.761057,25.4164935 L188.675855,4.49944156 C188.901194,4.5734026 189.136974,4.623 189.386674,4.623 L189.386674,4.623 Z M309.851873,25.285974 C309.688306,25.6027013 309.587382,25.955974 309.587382,26.3362208 C309.587382,26.4667403 309.604783,26.5911688 309.625664,26.7155974 L265.311245,26.7155974 C265.331256,26.5911688 265.349526,26.4667403 265.349526,26.3362208 C265.349526,25.6583896 265.051104,25.0545195 264.585635,24.6307662 L285.20723,4.00694805 C285.618757,4.38632468 286.16427,4.623 286.767205,4.623 C287.432783,4.623 288.029627,4.33585714 288.451595,3.88338961 L309.851873,25.285974 Z M334.310328,49.7470649 C334.023216,50.1325325 333.847469,50.6041429 333.847469,51.121 C333.847469,51.1236104 333.848339,51.1262208 333.848339,51.1288312 L290.053331,51.1288312 C290.053331,51.1262208 290.054201,51.1236104 290.054201,51.121 C290.054201,50.5293117 289.824512,49.9950519 289.459097,49.5860909 L310.725389,28.3166364 C311.070794,28.521987 311.4684,28.6481558 311.898198,28.6481558 C312.278404,28.6481558 312.632508,28.5472208 312.949201,28.3836364 L334.310328,49.7470649 Z M287.349259,146.506377 L308.664274,125.189065 C309.027949,125.428351 309.462097,125.569312 309.929306,125.569312 C310.471339,125.569312 310.964649,125.374403 311.358775,125.060286 L333.001794,146.705636 C332.705111,147.071961 332.518923,147.526169 332.491952,148.027364 L288.105321,148.027364 C288.053988,147.423494 287.775577,146.888364 287.349259,146.506377 L287.349259,146.506377 Z M264.461219,123.452286 L307.637631,123.452286 C307.687223,124.040494 307.951714,124.565182 308.360631,124.945429 L287.038656,146.268831 C286.682812,146.044338 286.265194,145.909468 285.813645,145.909468 C285.580476,145.909468 285.359487,145.954714 285.147198,146.019104 L263.901786,124.771403 C264.217609,124.412039 264.418588,123.956091 264.461219,123.452286 L264.461219,123.452286 Z M141.104021,52.0764026 C141.509458,52.4270649 142.030609,52.6472078 142.607443,52.6472078 C143.166006,52.6472078 143.671497,52.4401169 144.070844,52.1094675 L164.21914,72.2590649 C163.831974,72.6732468 163.590104,73.2249091 163.590104,73.8348701 C163.590104,74.0376104 163.624035,74.2316494 163.673627,74.4187273 L120.59292,74.4187273 C120.545938,73.9305844 120.35018,73.4894286 120.045667,73.137026 L141.104021,52.0764026 Z M166.010544,29.2215714 C166.518645,29.2215714 166.984985,29.0518961 167.366931,28.7725844 L187.544808,48.9535065 C187.254216,49.3398442 187.075858,49.8158052 187.075858,50.3352727 C187.075858,50.6154545 187.133281,50.879974 187.224635,51.1288312 L144.769483,51.1288312 C144.860837,50.879974 144.919129,50.6154545 144.919129,50.3352727 C144.919129,49.7583766 144.69901,49.2371688 144.348386,48.8316883 L164.517562,28.6603377 C164.922129,29.0049091 165.438931,29.2215714 166.010544,29.2215714 L166.010544,29.2215714 Z M312.445451,72.8028961 C312.052194,72.494 311.562364,72.3017013 311.024682,72.3017013 C310.440017,72.3017013 309.911905,72.5261948 309.504729,72.8855584 L289.376443,52.7551039 C289.706187,52.4253247 289.930656,51.9946104 290.01418,51.516039 L333.730014,51.516039 L312.445451,72.8028961 Z M357.044371,74.4187273 L313.316357,74.4187273 C313.272855,73.8992597 313.061436,73.4302597 312.729952,73.0656753 L333.968404,51.8249351 C334.268566,52.7533636 335.130772,53.4320649 336.158284,53.4320649 C336.674216,53.4320649 337.146645,53.2562987 337.532071,52.9691558 L357.629035,73.0682857 C357.299292,73.4328701 357.088743,73.901 357.044371,74.4187273 L357.044371,74.4187273 Z M359.250783,120.902805 C358.760952,120.902805 358.307664,121.058558 357.933548,121.319597 L336.709887,100.092779 C337.083133,99.7612597 337.352844,99.3166234 337.451158,98.8067273 L381.664653,98.8067273 C381.718595,99.448013 382.030938,100.010987 382.502497,100.396455 L361.082209,121.819052 C360.659371,121.265649 359.999884,120.902805 359.250783,120.902805 L359.250783,120.902805 Z M168.07427,121.151662 L189.163075,100.060584 C189.545021,100.339896 190.01136,100.510442 190.520331,100.510442 C191.064104,100.510442 191.559155,100.312922 191.954151,99.9979351 L213.503205,121.548442 C213.324848,121.87561 213.215223,122.245416 213.215223,122.643065 C213.215223,122.787506 213.231754,122.927597 213.256985,123.064208 L168.591942,123.064208 C168.617173,122.927597 168.633703,122.787506 168.633703,122.643065 C168.633703,122.07226 168.417934,121.555403 168.07427,121.151662 L168.07427,121.151662 Z M119.083407,120.99939 L139.931212,100.149338 C140.35405,100.696649 141.009187,101.055143 141.753068,101.055143 C142.514349,101.055143 143.185147,100.680987 143.606245,100.111922 L164.604566,121.111636 C164.240021,121.520597 164.011201,122.053117 164.011201,122.643065 C164.011201,122.787506 164.028602,122.927597 164.053833,123.064208 L119.364429,123.064208 C119.445342,122.828403 119.499284,122.579545 119.499284,122.315896 C119.499284,121.826013 119.343548,121.373545 119.083407,120.99939 L119.083407,120.99939 Z M96.3728549,98.8067273 L139.448342,98.8067273 C139.457913,99.1721818 139.557097,99.5115325 139.718053,99.8160779 L118.835447,120.700065 C118.41609,120.271961 117.833165,120.004831 117.188469,120.004831 C116.73083,120.004831 116.307122,120.142312 115.948667,120.371156 L95.8177718,100.238091 C96.1501256,99.8491429 96.3580643,99.354039 96.3728549,98.8067273 L96.3728549,98.8067273 Z M116.801303,76.3826104 C117.205869,76.7324026 117.727021,76.9516753 118.303855,76.9516753 C118.89896,76.9516753 119.436642,76.7202208 119.846429,76.3495455 L140.385371,96.8907013 C139.899021,97.2500649 139.564057,97.7938961 139.474443,98.4195195 L96.3467538,98.4195195 C96.2875913,98.0044675 96.1196744,97.6285714 95.870844,97.3144545 L116.801303,76.3826104 Z M213.078627,28.6481558 C213.605869,28.6481558 214.086129,28.4636883 214.475035,28.1661039 L236.184176,49.8775844 C235.953617,50.2369481 235.815281,50.6624416 235.815281,51.121 C235.815281,51.1236104 235.816151,51.1262208 235.816151,51.1288312 L191.549584,51.1288312 C191.640938,50.879974 191.69836,50.6154545 191.69836,50.3352727 C191.69836,49.787961 191.499122,49.2911169 191.180689,48.8952078 L211.808375,28.2644286 C212.17379,28.5054545 212.609678,28.6481558 213.078627,28.6481558 L213.078627,28.6481558 Z M285.4317,51.121 C285.4317,51.1236104 285.43257,51.1262208 285.43257,51.1288312 L240.437783,51.1288312 C240.437783,51.1262208 240.438653,51.1236104 240.438653,51.121 C240.438653,50.4753636 240.172422,49.8932468 239.745234,49.4738442 L261.33257,27.8841818 C261.755407,28.3497013 262.360082,28.6481558 263.03697,28.6481558 C263.51549,28.6481558 263.960079,28.501974 264.328974,28.2522468 L285.861497,49.7870909 C285.592656,50.1647273 285.4317,50.6232857 285.4317,51.121 L285.4317,51.121 Z M308.733006,74.4187273 L265.046754,74.4187273 C265.036313,74.2951688 265.019783,74.1742208 264.991071,74.0567532 L286.208642,52.8368961 C286.617559,53.2023506 287.151761,53.4320649 287.743386,53.4320649 C288.241046,53.4320649 288.698685,53.2702208 289.076281,53.0022208 L309.236757,73.1648701 C308.953126,73.5146623 308.773028,73.9445065 308.733006,74.4187273 L308.733006,74.4187273 Z M288.114891,98.8067273 L332.91653,98.8067273 C332.993963,99.2087273 333.180151,99.5680909 333.436812,99.8665455 L311.616306,121.688532 C311.194339,121.234325 310.596624,120.946312 309.929306,120.946312 C309.335942,120.946312 308.800869,121.176896 308.391082,121.544961 L287.306627,100.458234 C287.779057,100.054494 288.08618,99.4697662 288.114891,98.8067273 L288.114891,98.8067273 Z M164.45492,75.622987 C164.851656,75.9449351 165.351057,76.1468052 165.90179,76.1468052 C166.511685,76.1468052 167.063288,75.904039 167.476555,75.5168312 L188.721097,96.7645325 C188.405274,97.1595714 188.208645,97.6538052 188.208645,98.1985065 C188.208645,98.2742078 188.224306,98.3455584 188.231266,98.4195195 L144.032562,98.4195195 C143.945559,97.8104286 143.624516,97.2813896 143.159046,96.9211558 L164.45492,75.622987 Z M187.946765,52.1286104 C188.342631,52.4479481 188.839422,52.6472078 189.386674,52.6472078 C189.906956,52.6472078 190.381996,52.467961 190.768292,52.1773377 L212.048505,73.458974 C211.881458,73.746987 211.777053,74.0706753 211.747472,74.4187273 L168.129082,74.4187273 C168.177804,74.2316494 168.212606,74.0376104 168.212606,73.8348701 C168.212606,73.2849481 168.011627,72.7854935 167.689714,72.3878442 L187.946765,52.1286104 Z M236.232898,52.4392468 L215.683516,72.9908442 C215.264158,72.5662208 214.682974,72.3017013 214.040017,72.3017013 C213.328328,72.3017013 212.698422,72.6314805 212.274714,73.1378961 L191.059754,51.9215195 C191.176339,51.7988312 191.276393,51.6622208 191.363396,51.516039 L235.855303,51.516039 C235.914465,51.8545195 236.04323,52.1677662 236.232898,52.4392468 L236.232898,52.4392468 Z M238.782104,96.3973377 C237.902497,96.3973377 237.145566,96.8967922 236.75492,97.6216104 L215.513858,76.3782597 C215.974108,75.9936623 216.27775,75.4385195 216.331692,74.8059351 L260.462534,74.8059351 C260.534747,75.6525714 261.055028,76.3678182 261.791949,76.708039 L240.834519,97.6685974 C240.452573,96.9176753 239.680851,96.3973377 238.782104,96.3973377 L238.782104,96.3973377 Z M238.126967,53.4320649 C238.585476,53.4320649 239.010053,53.2945844 239.369378,53.0631299 L260.486895,74.1829221 C260.472104,74.2594935 260.469494,74.3395455 260.462534,74.4187273 L216.331692,74.4187273 C216.296021,74.0019351 216.158555,73.6155974 215.930606,73.291039 L236.479988,52.7385714 C236.900216,53.1658052 237.48227,53.4320649 238.126967,53.4320649 L238.126967,53.4320649 Z M167.991617,74.8059351 L211.747472,74.8059351 C211.795324,75.3706494 212.036324,75.8805455 212.4174,76.2564416 L192.130768,96.5452597 C191.714021,96.1389091 191.146757,95.8865714 190.520331,95.8865714 C189.928707,95.8865714 189.395375,96.1162857 188.986458,96.4817403 L167.734086,75.2279481 C167.83414,75.0965584 167.921144,74.9573377 167.991617,74.8059351 L167.991617,74.8059351 Z M192.809396,98.4195195 C192.816357,98.3455584 192.832017,98.2742078 192.832017,98.1985065 C192.832017,97.6894805 192.66236,97.2230909 192.382209,96.8411039 L212.717562,76.5044286 C213.092548,76.7672078 213.547577,76.9247013 214.040017,76.9247013 C214.461985,76.9247013 214.851761,76.8028831 215.192815,76.6044935 L236.591353,98.0053377 C236.548721,98.1393377 236.51827,98.2768182 236.499999,98.4195195 L192.809396,98.4195195 Z M241.064209,98.4195195 C241.048548,98.295961 241.024187,98.1767532 240.989386,98.0601558 L262.198256,76.849 C262.377483,76.8942468 262.561931,76.9247013 262.754209,76.9247013 C262.902115,76.9247013 263.044801,76.9072987 263.184877,76.8811948 L283.834313,97.5328571 C283.675097,97.7991169 283.571562,98.0984416 283.530671,98.4195195 L241.064209,98.4195195 Z M332.877378,98.4195195 L288.09575,98.4195195 C288.069649,98.2193896 288.027017,98.0253506 287.953064,97.8443636 L309.476887,76.3182208 C309.887544,76.6915065 310.427837,76.9247013 311.024682,76.9247013 C311.575414,76.9247013 312.074815,76.7228312 312.472422,76.4008831 L333.225393,97.1560909 C333.005274,97.5093636 332.872158,97.9235455 332.872158,98.3707922 C332.872158,98.3873247 332.876508,98.402987 332.877378,98.4195195 L332.877378,98.4195195 Z M308.733006,74.8059351 C308.772158,75.267974 308.943555,75.6891169 309.215006,76.0336883 L287.766006,97.4841299 C287.35709,96.8341429 286.63757,96.3973377 285.813645,96.3973377 C285.110656,96.3973377 284.48771,96.7192857 284.064003,97.2152597 L263.607714,76.7567662 C264.402927,76.440039 264.971061,75.6943377 265.046754,74.8059351 L308.733006,74.8059351 Z M285.943281,52.5541039 L264.850126,73.6504026 C264.48384,72.8568442 263.685147,72.3017013 262.754209,72.3017013 C261.781508,72.3017013 260.951494,72.9073117 260.61044,73.760039 L239.677371,52.8238442 C240.048006,52.4853636 240.309017,52.032026 240.398631,51.516039 L285.470851,51.516039 C285.538714,51.9058571 285.706631,52.2573896 285.943281,52.5541039 L285.943281,52.5541039 Z M215.249368,27.1028052 L260.8671,27.1028052 C260.926263,27.2698701 260.999346,27.4291039 261.09331,27.5761558 L239.445942,49.2258571 C239.070956,48.9648182 238.617667,48.8090649 238.126967,48.8090649 C237.450949,48.8090649 236.847144,49.1057792 236.424306,49.5704286 L214.763887,27.9076753 C214.977916,27.677961 215.142353,27.4047403 215.249368,27.1028052 L215.249368,27.1028052 Z M167.799339,120.879312 C167.397382,120.542571 166.886671,120.332 166.322017,120.332 C165.776505,120.332 165.281454,120.529519 164.886458,120.846247 L143.813313,99.7717013 C143.960349,99.4784675 144.049093,99.1539091 144.058664,98.8067273 L188.300869,98.8067273 C188.405274,99.1887143 188.598422,99.5332857 188.867263,99.8091169 L167.799339,120.879312 Z M215.526039,120.332 C214.791729,120.332 214.143552,120.682662 213.719844,121.218662 L192.236913,99.7325455 C192.470952,99.4706364 192.64496,99.1556494 192.740664,98.8067273 L236.480858,98.8067273 C236.5174,99.6638052 237.018541,100.393844 237.741541,100.761909 L217.312223,121.193429 C216.887645,120.672221 216.249039,120.332 215.526039,120.332 L215.526039,120.332 Z M263.707768,121.544961 C263.297981,121.176896 262.762039,120.946312 262.168674,120.946312 C261.58749,120.946312 261.061988,121.169065 260.655682,121.524948 L239.869649,100.736675 C240.566548,100.360779 241.047678,99.6446623 241.083349,98.8067273 L283.51153,98.8067273 C283.545461,99.5898442 283.964819,100.269416 284.588635,100.661844 L263.707768,121.544961 Z M356.955627,123.064208 L312.221851,123.064208 C312.18792,122.671779 312.065245,122.304584 311.859916,121.992208 L333.711743,100.138026 C334.11283,100.472156 334.621801,100.681857 335.183844,100.681857 C335.630173,100.681857 336.04431,100.548727 336.397544,100.328584 L357.634256,121.566714 C357.240999,121.953052 356.993039,122.480351 356.955627,123.064208 L356.955627,123.064208 Z M381.664653,98.4195195 L337.48944,98.4195195 C337.49031,98.402987 337.49466,98.3873247 337.49466,98.3707922 C337.49466,97.8086883 337.285851,97.2996623 336.951757,96.8985325 L357.656877,76.1911818 C358.078844,76.6401688 358.673079,76.9247013 359.336916,76.9247013 C359.932021,76.9247013 360.470573,76.6923766 360.88123,76.3208312 L381.983956,97.4258312 C381.805599,97.7208052 381.695104,98.0584156 381.664653,98.4195195 L381.664653,98.4195195 Z M357.044371,74.8059351 C357.078303,75.2035844 357.202718,75.5742597 357.411526,75.8892468 L336.680306,96.6227013 C336.275739,96.2755195 335.757198,96.057987 335.183844,96.057987 C334.495645,96.057987 333.88401,96.366013 333.460303,96.8437143 L312.752573,76.1337532 C313.070136,75.7717792 313.273725,75.3140909 313.316357,74.8059351 L357.044371,74.8059351 Z M238.126967,4.623 C238.831696,4.623 239.456382,4.29931169 239.88009,3.80072727 L261.121151,25.0440779 C260.872321,25.413013 260.726155,25.8585195 260.726155,26.3362208 C260.726155,26.4667403 260.743555,26.5911688 260.764436,26.7155974 L215.352032,26.7155974 C215.372043,26.5911688 215.390313,26.4667403 215.390313,26.3362208 C215.390313,25.8672208 215.247627,25.4312857 215.006627,25.0658312 L236.326862,3.74416883 C236.75057,4.27581818 237.396136,4.623 238.126967,4.623 L238.126967,4.623 Z M144.584165,51.516039 L187.409952,51.516039 C187.484775,51.6404675 187.570039,51.7553247 187.665743,51.8632208 L167.422613,72.1076623 C167.015436,71.7482987 166.486454,71.5229351 165.90179,71.5229351 C165.376288,71.5229351 164.896898,71.7056623 164.508862,72.0015065 L144.348386,51.8397273 C144.435389,51.7379221 144.514562,51.6308961 144.584165,51.516039 L144.584165,51.516039 Z M163.811093,74.8059351 C163.905057,75.0078052 164.028602,75.1914026 164.174768,75.3558571 L142.824952,96.707974 C142.503039,96.5374286 142.141974,96.4321429 141.753068,96.4321429 C141.382432,96.4321429 141.037028,96.5278571 140.725555,96.6836104 L120.11005,76.0658831 C120.388461,75.7134805 120.564209,75.281026 120.59901,74.8059351 L163.811093,74.8059351 Z M217.795093,123.064208 C217.820324,122.927597 217.837725,122.787506 217.837725,122.643065 C217.837725,122.233234 217.72114,121.852987 217.534082,121.518857 L238.133927,100.916792 C238.340996,100.977701 238.555895,101.020338 238.782104,101.020338 C239.029194,101.020338 239.262364,100.97161 239.485093,100.89939 L260.38684,121.80339 C260.100599,122.154052 259.917891,122.587377 259.876999,123.064208 L217.795093,123.064208 Z M264.461219,123.064208 C264.422068,122.598688 264.247191,122.174935 263.972259,121.828623 L284.94883,100.849792 C285.215931,100.957688 285.507393,101.020338 285.813645,101.020338 C286.244313,101.020338 286.64366,100.894169 286.989064,100.687948 L308.126591,121.828623 C307.85166,122.174935 307.676783,122.598688 307.637631,123.064208 L264.461219,123.064208 Z M336.403635,146.499416 C335.986887,146.092195 335.418754,145.838987 334.790588,145.838987 C334.205053,145.838987 333.676071,146.065221 333.268025,146.425455 L311.642407,124.796636 C311.968671,124.432922 312.177479,123.967403 312.221851,123.452286 L356.964328,123.452286 C357.031321,124.101403 357.362804,124.668727 357.856115,125.045494 L336.403635,146.499416 Z M406.540725,76.3547662 L385.739032,97.1595714 C385.314454,96.640974 384.677588,96.3024935 383.956328,96.3024935 C383.257689,96.3024935 382.639093,96.6192208 382.215386,97.109974 L361.143981,76.0362987 C361.416303,75.6908571 361.58857,75.2697143 361.628591,74.8059351 L405.751602,74.8059351 C405.804674,75.4254675 406.097006,75.971039 406.540725,76.3547662 L406.540725,76.3547662 Z M310.407826,28.0877922 L289.176335,49.3215714 C288.781339,49.0057143 288.287158,48.8090649 287.743386,48.8090649 C287.105649,48.8090649 286.527075,49.0683636 286.108588,49.4868961 L264.629136,28.0051299 C264.889277,27.7571429 265.085905,27.4482468 265.208581,27.1028052 L309.728328,27.1028052 C309.865794,27.490013 310.100703,27.8258831 310.407826,28.0877922 L310.407826,28.0877922 Z M284.94709,3.71980519 L264.277642,24.3914805 C263.918317,24.1617662 263.494609,24.0242857 263.03697,24.0242857 C262.380093,24.0242857 261.790209,24.3027273 261.369111,24.7447532 L240.108909,3.48225974 C240.281176,3.19076623 240.389061,2.86011688 240.418642,2.50597403 L284.47466,2.50597403 C284.512942,2.96192208 284.680858,3.37784416 284.94709,3.71980519 L284.94709,3.71980519 Z M191.679219,2.50597403 L235.835292,2.50597403 C235.863133,2.83401299 235.957097,3.1402987 236.108483,3.41525974 L214.762147,24.763026 C214.34105,24.3114286 213.744205,24.0242857 213.078627,24.0242857 C212.470472,24.0242857 211.920609,24.2653117 211.507342,24.6507792 L190.902277,4.04349351 C191.339905,3.66063636 191.627017,3.11854545 191.679219,2.50597403 L191.679219,2.50597403 Z M210.907887,27.1028052 C211.033173,27.4560779 211.236761,27.7693247 211.505602,28.0199221 L190.914458,48.6132857 C190.506411,48.2504416 189.974819,48.0233377 189.386674,48.0233377 C188.771559,48.0233377 188.215606,48.2687143 187.800599,48.662013 L167.662743,28.521987 C168.026418,28.1487013 168.256108,27.6527273 168.30309,27.1028052 L210.907887,27.1028052 Z M72.5564866,74.8059351 L116.00957,74.8059351 C116.045241,75.2992987 116.233169,75.7456753 116.530721,76.105039 L95.6063531,97.0316623 C95.1974361,96.6627273 94.6606238,96.4321429 94.0672592,96.4321429 C93.4956455,96.4321429 92.977974,96.6488052 92.5742773,96.9942468 L71.8743783,76.2921169 C72.2667646,75.9083896 72.5147249,75.3863117 72.5564866,74.8059351 L72.5564866,74.8059351 Z M71.7786744,121.409221 L92.6386599,100.546987 C93.0336563,100.860234 93.5260968,101.055143 94.0672592,101.055143 C94.6310426,101.055143 95.1408838,100.845442 95.5419704,100.509571 L115.640674,120.610442 C115.174335,121.034195 114.875913,121.638065 114.875913,122.315896 C114.875913,122.579545 114.929855,122.828403 115.011638,123.064208 L71.8300065,123.064208 C71.9117899,122.828403 71.9648621,122.579545 71.9648621,122.315896 C71.9648621,121.993948 71.8978693,121.687662 71.7786744,121.409221 L71.7786744,121.409221 Z M141.960136,145.241208 C141.624303,145.241208 141.307609,145.316909 141.019627,145.445688 L119.132129,123.555831 C119.15388,123.522766 119.169541,123.486221 119.188682,123.452286 L164.165198,123.452286 C164.257422,123.698532 164.392277,123.922156 164.559324,124.120545 L143.118155,145.563156 C142.77623,145.363896 142.383844,145.241208 141.960136,145.241208 L141.960136,145.241208 Z M192.40831,146.100026 C192.001133,145.739792 191.471281,145.513558 190.886617,145.513558 C190.500321,145.513558 190.141866,145.617974 189.821692,145.785039 L168.119512,124.079649 C168.270028,123.891701 168.393573,123.682 168.480577,123.452286 L213.368349,123.452286 C213.514516,123.839494 213.760736,124.172753 214.076559,124.429442 L192.40831,146.100026 Z M239.077046,145.513558 C238.762963,145.513558 238.463671,145.577948 238.190479,145.691935 L216.951158,124.450325 C217.279162,124.191026 217.534082,123.849935 217.683729,123.452286 L259.876999,123.452286 C259.921371,123.967403 260.12931,124.432922 260.456443,124.796636 L239.65823,145.597091 C239.472043,145.548364 239.278895,145.513558 239.077046,145.513558 L239.077046,145.513558 Z M381.766447,148.027364 L337.090093,148.027364 C337.064862,147.567935 336.909996,147.145922 336.655075,146.79613 L358.191079,125.256935 C358.510382,125.42313 358.867097,125.526675 359.250783,125.526675 C359.896349,125.526675 360.479274,125.259545 360.898631,124.832312 L382.513808,146.448948 C382.07966,146.845727 381.800378,147.40174 381.766447,148.027364 L381.766447,148.027364 Z M405.732461,122.94674 C405.732461,122.986766 405.742032,123.025052 405.744642,123.064208 L361.547678,123.064208 C361.525927,122.737039 361.437183,122.430753 361.293627,122.154922 L382.827021,100.618338 C383.162855,100.808026 383.543931,100.925494 383.956328,100.925494 C384.392216,100.925494 384.795913,100.797584 385.143927,100.587013 L406.164869,121.610221 C405.895158,121.987857 405.732461,122.447286 405.732461,122.94674 L405.732461,122.94674 Z M430.565032,96.9246364 C430.154375,97.3048831 429.889014,97.8304416 429.839422,98.4195195 L386.248003,98.4195195 C386.220162,98.081039 386.120108,97.7660519 385.960891,97.4841299 L406.856548,76.5862208 C407.204562,76.7967922 407.608259,76.9247013 408.043277,76.9247013 C408.734956,76.9247013 409.349201,76.6131948 409.773779,76.1311429 L430.565032,96.9246364 Z M432.131097,96.3024935 C431.664757,96.3024935 431.232349,96.4434545 430.868674,96.6818701 L410.007819,75.8178961 C410.224458,75.4654935 410.354963,75.0556623 410.354963,74.6127662 C410.354963,73.338026 409.31875,72.3017013 408.043277,72.3017013 C406.835667,72.3017013 405.852526,73.2362208 405.751602,74.4187273 L361.628591,74.4187273 C361.527667,73.2362208 360.545396,72.3017013 359.336916,72.3017013 C358.796624,72.3017013 358.306794,72.4948701 357.912667,72.8055065 L337.825274,52.7150779 C338.22288,52.300026 338.46997,51.7396623 338.46997,51.121 C338.46997,49.8453896 337.433757,48.8090649 336.158284,48.8090649 C335.539689,48.8090649 334.979386,49.0561818 334.564378,49.4538312 L313.285905,28.1739351 C313.844469,27.7510519 314.210754,27.0888831 314.210754,26.3362208 C314.210754,25.0614805 313.173671,24.0242857 311.898198,24.0242857 C311.146487,24.0242857 310.483519,24.3906104 310.061552,24.9492338 L288.695205,3.58058442 C288.936205,3.216 289.078021,2.78093506 289.078021,2.31193506 C289.078021,1.03632468 288.041808,0 286.767205,0 C285.557855,0 284.574714,0.934519481 284.47466,2.1178961 L240.418642,2.1178961 C240.318588,0.934519481 239.335447,0 238.126967,0 C236.918487,0 235.935346,0.934519481 235.835292,2.1178961 L191.679219,2.1178961 C191.578295,0.934519481 190.596025,0 189.386674,0 C188.112071,0 187.075858,1.03632468 187.075858,2.31193506 C187.075858,3.18902597 187.571779,3.94342857 188.293039,4.33498701 L167.486126,25.145013 C167.084169,24.8082727 166.574328,24.5977013 166.010544,24.5977013 C164.735942,24.5977013 163.699729,25.6348961 163.699729,26.9096364 C163.699729,27.4734805 163.909407,27.9833766 164.246111,28.3845065 L144.071714,48.5610779 C143.671497,48.2304286 143.166006,48.0233377 142.607443,48.0233377 C141.33284,48.0233377 140.295757,49.0605325 140.295757,50.3352727 C140.295757,50.6154545 140.35318,50.879974 140.444534,51.1288312 L97.21853,51.1288312 C97.2820426,50.9182597 97.3255444,50.6998571 97.3255444,50.4701429 C97.3255444,49.1954026 96.2893314,48.1582078 95.0138585,48.1582078 C93.7392556,48.1582078 92.7030426,49.1954026 92.7030426,50.4701429 C92.7030426,50.9652468 92.8622592,51.4211948 93.1276202,51.797961 L71.9074397,73.0204286 C71.4880823,72.5940649 70.9060282,72.3286753 70.2622014,72.3286753 C68.9867285,72.3286753 67.9505155,73.365 67.9505155,74.6406104 C67.9505155,75.2845065 68.2158765,75.8666234 68.6421942,76.286026 L47.5681798,97.3631818 C47.1436022,96.8689481 46.5223964,96.5496104 45.8220173,96.5496104 C44.5465444,96.5496104 43.5103314,97.5859351 43.5103314,98.8606753 C43.5103314,100.136286 44.5465444,101.17261 45.8220173,101.17261 C46.3596996,101.17261 46.8486599,100.981182 47.2419162,100.671416 L67.6860245,121.118597 C67.4719957,121.46926 67.3423603,121.876481 67.3423603,122.315896 C67.3423603,123.591506 68.3785733,124.627831 69.6540462,124.627831 C70.0934144,124.627831 70.5005913,124.498182 70.8512159,124.28413 L91.4058188,144.840948 C90.9011978,145.265571 90.5740643,145.892935 90.5740643,146.602961 C90.5740643,147.877701 91.6102773,148.914026 92.8857502,148.914026 C93.4225625,148.914026 93.9106527,148.722597 94.303909,148.414571 L139.819848,148.414571 C140.162642,149.262948 140.990916,149.864208 141.960136,149.864208 C142.930227,149.864208 143.759371,149.262948 144.102165,148.414571 L188.659324,148.414571 C188.881183,149.247286 189.548501,149.898143 190.395916,150.08261 L190.395916,205.993675 L172.793346,205.993675 C172.692422,204.810299 171.710151,203.874909 170.501671,203.874909 C169.226198,203.874909 168.189985,204.912104 168.189985,206.187714 C168.189985,207.462455 169.226198,208.498779 170.501671,208.498779 C171.710151,208.498779 172.692422,207.56426 172.793346,206.380883 L190.783082,206.380883 L190.783082,150.126987 C190.817884,150.127857 190.850945,150.137429 190.886617,150.137429 C191.955891,150.137429 192.849418,149.403039 193.112169,148.414571 L236.851494,148.414571 C237.114245,149.403039 238.007772,150.137429 239.077046,150.137429 C239.119678,150.137429 239.1597,150.126987 239.202331,150.124377 L239.202331,263.281286 C238.019082,263.381351 237.083794,264.364597 237.083794,265.574078 C237.083794,266.848818 238.120877,267.885143 239.395479,267.885143 C240.670082,267.885143 241.707165,266.848818 241.707165,265.574078 C241.707165,264.364597 240.771877,263.381351 239.589497,263.281286 L239.589497,150.075649 C240.426472,149.885091 241.08509,149.240325 241.303469,148.414571 L283.5211,148.414571 C283.615934,149.535299 284.504241,150.421961 285.624848,150.514195 L285.624848,176.663338 L316.491988,176.663338 C316.592043,177.846714 317.575183,178.782104 318.783664,178.782104 C320.058266,178.782104 321.095349,177.744909 321.095349,176.469299 C321.095349,175.195429 320.058266,174.158234 318.783664,174.158234 C317.575183,174.158234 316.592043,175.092753 316.491988,176.27613 L286.012884,176.27613 L286.012884,150.513325 C287.1274,150.41587 288.010487,149.531818 288.105321,148.414571 L332.505873,148.414571 C332.638988,149.564013 333.606469,150.462857 334.790588,150.462857 C335.975577,150.462857 336.943057,149.564013 337.075303,148.414571 L381.780368,148.414571 C381.913483,149.564013 382.880093,150.462857 384.065082,150.462857 C385.340555,150.462857 386.376768,149.425662 386.376768,148.150922 C386.376768,147.386078 385.999173,146.711727 385.424949,146.291455 L406.815656,124.898442 C407.172371,125.122935 407.591729,125.258675 408.043277,125.258675 C409.31875,125.258675 410.354963,124.221481 410.354963,122.94674 C410.354963,122.494273 410.220108,122.07574 409.994768,121.718987 L431.060952,100.650532 C431.381996,100.820208 431.743061,100.925494 432.131097,100.925494 C433.40657,100.925494 434.442783,99.8891688 434.442783,98.6135584 C434.442783,97.3388182 433.40657,96.3024935 432.131097,96.3024935 L432.131097,96.3024935 Z" id="Fill-5" fill="#A1DCF3"></path>
                        <path d="M429.221783,146.233504 C427.94718,146.233504 426.910967,147.269829 426.910967,148.545439 C426.910967,149.820179 427.94718,150.856504 429.221783,150.856504 C430.497256,150.856504 431.533469,149.820179 431.533469,148.545439 C431.533469,147.269829 430.497256,146.233504 429.221783,146.233504" id="Fill-7" fill="#31C8FA"></path>
                        <path d="M454.697484,121.928514 C453.422011,121.928514 452.385798,122.964839 452.385798,124.240449 C452.385798,125.51519 453.422011,126.551514 454.697484,126.551514 C455.972087,126.551514 457.0083,125.51519 457.0083,124.240449 C457.0083,122.964839 455.972087,121.928514 454.697484,121.928514" id="Fill-9" fill="#31C8FA"></path>
                        <path d="M478.888577,97.6235247 C477.613974,97.6235247 476.577761,98.6598494 476.577761,99.9354597 C476.577761,101.2102 477.613974,102.246525 478.888577,102.246525 C480.16405,102.246525 481.200263,101.2102 481.200263,99.9354597 C481.200263,98.6598494 480.16405,97.6235247 478.888577,97.6235247" id="Fill-11" fill="#31C8FA"></path>
                        <path d="M120.564557,30.1816727 C121.84003,30.1816727 122.876243,29.1453481 122.876243,27.8706078 C122.876243,26.5949974 121.84003,25.5586727 120.564557,25.5586727 C119.289954,25.5586727 118.253741,26.5949974 118.253741,27.8706078 C118.253741,29.1453481 119.289954,30.1816727 120.564557,30.1816727" id="Fill-13" fill="#31C8FA"></path>
                        <path d="M144.531354,5.8765961 C145.806827,5.8765961 146.84304,4.84027143 146.84304,3.56553117 C146.84304,2.28992078 145.806827,1.2535961 144.531354,1.2535961 C143.256751,1.2535961 142.220538,2.28992078 142.220538,3.56553117 C142.220538,4.84027143 143.256751,5.8765961 144.531354,5.8765961" id="Fill-15" fill="#31C8FA"></path>
                    </g>
                </g>
            </g>
        </g>
    </g>
</svg>