<svg id="Layer_1" data-name="Layer 1" xmlns="http://www.w3.org/2000/svg" viewBox="0 0 291.32 291.32"><defs><style>.cls-1{fill:#0077b7;}</style></defs><title>Artboard 1github</title><path class="cls-1" d="M145.66,0A145.66,145.66,0,1,0,291.32,145.66,145.67,145.67,0,0,0,145.66,0Zm40.8,256.63c-.84-11.4-1.77-25.52-1.83-31.24-.36-4.39-.84-15.55-11.43-22.68,42.07-3.52,62.09-26.77,63.53-57.5,1.2-17.5-5.75-32.88-18.11-45.3A248.9,248.9,0,0,0,217.36,64c-9.49-2.73-31.61,8.95-37.79,13.95-13-5.06-44.95-6.84-64.34,0-13.75-9.67-29.4-15.64-37.93-14C69.43,81.4,74.5,97.89,76,99.86c-10.14,9.27-24.29,20.68-20.45,44.57,6.16,35,30.82,53.94,70.51,58.56-8.47,1.73-9.9,8-10.61,10.79-26.66,11-34.28-6.79-37.64-11.43-11.19-13.85-21.23-9.83-21.85-9.61a1.75,1.75,0,0,0-1,1.51c.56,3,6.65,6,7,6.26,8.26,6.15,11.32,17.27,13.2,20.44,11.84,19.47,39.37,11.4,39.64,11.56,0,1.7-.19,16-.36,27.18a118.37,118.37,0,1,1,72-3.08Z"/></svg>