<?xml version="1.0" encoding="utf-8"?>
<!-- Generator: Adobe Illustrator 21.0.0, SVG Export Plug-In . SVG Version: 6.00 Build 0)  -->
<svg version="1.1" id="Layer_1" xmlns="http://www.w3.org/2000/svg" xmlns:xlink="http://www.w3.org/1999/xlink" x="0px" y="0px"
	 viewBox="0 0 1280 474.5" style="enable-background:new 0 0 1280 474.5;" xml:space="preserve">
<style type="text/css">
	.st0{fill:none;stroke:#00BFB3;stroke-width:4;stroke-linejoin:round;}
	.st1{fill:none;stroke:#00BFB3;stroke-width:2;stroke-linejoin:round;}
	.st2{fill:none;stroke:#13A7DF;stroke-width:4;stroke-linecap:round;stroke-linejoin:round;}
	.st3{fill:none;stroke:#00BFB3;stroke-width:4;stroke-linecap:round;stroke-linejoin:round;}
	.st4{fill:none;stroke:#13A7DF;stroke-width:2;stroke-linecap:round;stroke-linejoin:round;}
	.st5{fill:#F6F6F6;}
	.st6{fill:none;stroke:#00BFB3;stroke-width:4;}
	.st7{fill:none;stroke:#00BFB3;stroke-width:2;}
	.st8{fill:none;stroke:#13A7DF;stroke-width:4;stroke-linejoin:round;}
	.st9{fill:none;stroke:#00BFB3;stroke-width:2;stroke-linecap:round;stroke-linejoin:round;}
	.st10{fill:#FCD00C;}
</style>
<title>Group 9</title>
<desc>Created with Sketch.</desc>
<g id="Page-1_1_">
	<g id="Services-Page" transform="translate(-159.000000, -260.000000)">
		<g id="Group-9" transform="translate(160.000000, 260.000000)">
			<g id="Page-1">
				<polyline id="Stroke-1" class="st0" points="427,366.9 619.2,230.5 734.7,274.6 849.1,155.4 				"/>
				<path id="Stroke-2" class="st1" d="M498.6,316.1l66.1-99.2"/>
				<path id="Stroke-3" class="st1" d="M540.7,286.2l40.5-60.9"/>
				<path id="Stroke-4" class="st1" d="M663.8,247.6l75-79.8"/>
				<path id="Stroke-5" class="st1" d="M680.1,253.8l70.6-75.1"/>
				<path id="Stroke-6" class="st1" d="M696.5,260l66.5-70.8"/>
				<path id="Stroke-7" class="st1" d="M712.8,266.3l61.6-65.6"/>
				<g id="Group-182" transform="translate(0.000000, 0.802000)">
					<path id="Stroke-8" class="st2" d="M427,379.8V114.8c0-7.3,5-13.2,11.1-13.2h400c6.1,0,11.1,5.9,11.1,13.2v264.9H427L427,379.8
						z"/>
					<polyline id="Stroke-10" class="st2" points="647.4,240.5 726.9,155.9 791,215.2 					"/>
					<polyline id="Stroke-12" class="st2" points="456.5,345.1 548.1,207.6 607.5,238 					"/>
					<path id="Stroke-14" class="st3" d="M79.3,379.8h1117.5"/>
					<path id="Stroke-16" class="st4" d="M203.5,393h869.2"/>
					<path id="Fill-18" class="st5" d="M440.8,326.8H239.2c-6,0-11-5.2-11-11.7V153c0-6.5,4.9-11.7,11-11.7h201.6
						c6,0,11,5.2,11,11.7v162.1C451.8,321.6,446.9,326.8,440.8,326.8"/>
					<path id="Stroke-20" class="st6" d="M440.8,326.8H239.2c-6,0-11-5.2-11-11.7V153c0-6.5,4.9-11.7,11-11.7h201.6
						c6,0,11,5.2,11,11.7v162.1C451.8,321.6,446.9,326.8,440.8,326.8L440.8,326.8z"/>
					<path id="Stroke-22" class="st6" d="M402.1,232.7c0-36.6-27.8-66.2-62.1-66.2"/>
					<polyline id="Stroke-24" class="st2" points="340,166.5 340,232.7 402.1,232.7 					"/>
					<polyline id="Stroke-26" class="st1" points="381.4,245.1 329.7,245.1 329.7,189.9 					"/>
					<path id="Stroke-28" class="st4" d="M329.7,189.9c-28.6,0-51.7,24.7-51.7,55.2s23.2,55.2,51.7,55.2s51.7-24.7,51.7-55.2"/>
					<path id="Stroke-30" class="st4" d="M1078.8,48.6h161.4c3.4,0,6.2,3,6.2,6.6v132.5c0,3.7-2.8,6.6-6.2,6.6h-161.4
						c-3.4,0-6.2-3-6.2-6.6V55.2C1072.6,51.6,1075.4,48.6,1078.8,48.6L1078.8,48.6z"/>
					<path id="Stroke-32" class="st7" d="M1229.3,79.2c1.3,0.1,2.4-1.1,2.4-2.5v-8.2c0-1,0.5-1.9,1.3-2.3l10.9-5.7
						c0.3-0.2,3.1-1.6,3.5-1.6"/>
					<path id="Stroke-34" class="st4" d="M1128.3,111.8h5.9c0.9,0,1.7,0.6,2.1,1.4l2.3,5.3c0.4,0.9,1.2,1.5,2.2,1.4l17.6-0.9
						c1-0.1,1.9-0.8,2.1-1.9l1.6-6.9c0.2-0.8,0.8-1.5,1.5-1.8l0.9-0.3c1.3-0.5,1.9-2.1,1.3-3.5l-1.6-3.5c-0.2-0.3-0.2-0.7-0.2-1.1
						v-4.5c0-1.4-1-2.5-2.3-2.5h-2.4c-0.6,0-1.1,0.2-1.5,0.7l-10.7,10.9c-0.4,0.4-1,0.7-1.6,0.7l-11-0.3c-0.9,0-1.6-0.6-2-1.4
						l-2.9-6.6c-0.4-1-0.2-2.2,0.5-3l12.4-12.1c0.2-0.2,0.5-0.4,0.8-0.5l19.6-7.6c0.5-0.2,1-0.2,1.5,0l11.9,4.9
						c0.4,0.2,0.8,0.5,1,0.8l7.4,10.7c0.4,0.6,1.1,1,1.8,1h20.2c0.7,0,1.3-0.3,1.7-0.9l8.3-11.1c0.5-0.6,1.2-1,1.9-0.9l10.7,0.8"/>
					<path id="Stroke-36" class="st7" d="M1173.6,183.2l11.6-10.5c0.2-0.8,0-1.8-0.5-2.4l-10.9-13.1c-0.7-0.8-1.8-1.1-2.7-0.5
						l-8.5,5.1c-0.9,0.6-2.1,0.3-2.8-0.6l-8.5-11.3c-0.4-0.6-1.1-0.9-1.7-0.9h-1.2c-1.7,0-2.8,1.9-2.1,3.6l3.7,8.7
						c0.4,0.9,0.2,2-0.3,2.7l-5.6,7.1c-1,1.2-2.7,1.1-3.5-0.2l-1.7-2.6c-0.5-0.8-0.6-1.9-0.1-2.7l2.2-4.2c0.4-0.8,0.4-1.7,0-2.5
						l-4.4-8.5c-0.5-0.9-1.4-1.4-2.3-1.2l-7.8,1.2c-0.1,0-0.2,0-0.4,0.1l-8.6,3c-1,0.3-1.6,1.4-1.6,2.5l0.2,6c0,1.5-1.2,2.8-2.5,2.6
						l-10.6-1.5c-1-0.1-1.8-1-2-2.2l-1.4-11.3c-0.2-1.3,0.6-2.6,1.8-2.8l4.7-0.9c1.2-0.2,2-1.5,1.8-2.9l-0.7-4.6
						c-0.1-0.8,0.1-1.5,0.5-2.1l6.4-8c0.4-0.5,1-0.8,1.7-0.8h3.6c0.9,0,1.7-0.6,2.1-1.5l4.7-12.4c0.4-0.9,1.2-1.5,2.1-1.5"/>
					<path id="Stroke-38" class="st4" d="M1107.4,111.1v6.1c0,0.3-0.1,0.6-0.2,0.9l-1.4,3c-0.4,0.8-0.2,1.7,0.4,2.3l1.5,1.5
						c0.6,0.7,1.6,0.7,2.3,0.1l3.5-3.1c0.6-0.5,0.8-1.3,0.6-2.1l-2.5-9.3c-0.2-0.8-0.9-1.4-1.7-1.4h-0.7
						C1108.2,109.2,1107.4,110,1107.4,111.1L1107.4,111.1z"/>
					<path id="Stroke-40" class="st7" d="M1101.5,113.1l0.4,1.8c0.1,0.5,0.1,1-0.2,1.4l-1.2,2.5c-0.5,1.1-1.8,1.4-2.7,0.6l-1.2-1.1
						c-0.7-0.6-0.8-1.8-0.3-2.6l2-3.2C1099.2,111.1,1101.2,111.4,1101.5,113.1L1101.5,113.1z"/>
					<path id="Stroke-42" class="st4" d="M1094.5,194.3l9.8-16.4c0.1-0.2,0.4-0.4,0.6-0.5l26.1-6.1c0.4-0.1,0.8,0.1,1,0.4l4.8,7.4
						c0.2,0.2,0.4,0.4,0.7,0.4l36,3.7"/>
					<path id="Stroke-44" class="st4" d="M1245.2,182.4l-22.6,6l-19.1-3.3c-0.9-0.3-1.6,0.8-1.1,1.6l4.2,6.6
						c0.2,0.2,0.4,0.4,0.7,0.4"/>
					<path id="Stroke-46" class="st4" d="M1078.8,220.8h86.9c3.4,0,6.2,3,6.2,6.6v66.2c0,3.7-2.8,6.6-6.2,6.6h-86.9
						c-3.4,0-6.2-3-6.2-6.6v-66.2C1072.6,223.8,1075.4,220.8,1078.8,220.8L1078.8,220.8z"/>
					<path id="Fill-56" class="st5" d="M835.2,326.8h201.6c6,0,11-5.2,11-11.7V153c0-6.5-4.9-11.7-11-11.7H835.2
						c-6,0-11,5.2-11,11.7v162.1C824.3,321.6,829.2,326.8,835.2,326.8"/>
					<path id="Stroke-58" class="st6" d="M835.2,326.8h201.6c6,0,11-5.2,11-11.7V153c0-6.5-4.9-11.7-11-11.7H835.2
						c-6,0-11,5.2-11,11.7v162.1C824.3,321.6,829.2,326.8,835.2,326.8L835.2,326.8z"/>
					<polyline id="Stroke-60" class="st7" points="864.7,181.8 1005.2,163.1 936,141.8 					"/>
					<path id="Stroke-62" class="st4" d="M987.6,141.3l17.6,21.8"/>
					<polyline id="Stroke-64" class="st7" points="1047.8,157.1 1005.2,163.1 1047.8,226.1 					"/>
					<polyline id="Stroke-66" class="st4" points="1018.4,257.6 1005.2,163.1 987.6,313 					"/>
					<polyline id="Stroke-68" class="st2" points="1005.2,163.1 934.9,212.2 916.7,297.1 					"/>
					<path id="Stroke-70" class="st7" d="M858.5,223l76.4-10.8"/>
					<polyline id="Stroke-72" class="st2" points="955.4,295.8 974.5,242.7 1005.2,163.1 					"/>
					<path id="Fill-74" class="st5" d="M1014,153.7c4.8,5.2,4.8,13.6,0,18.7s-12.7,5.2-17.6,0c-4.8-5.2-4.8-13.6,0-18.7
						C1001.3,148.6,1009.1,148.6,1014,153.7"/>
					<path id="Stroke-76" class="st6" d="M1014,153.7c4.8,5.2,4.8,13.6,0,18.7s-12.7,5.2-17.6,0c-4.8-5.2-4.8-13.6,0-18.7
						C1001.3,148.6,1009.1,148.6,1014,153.7L1014,153.7z"/>
					<path id="Fill-78" class="st5" d="M964.2,286.5c4.8,5.2,4.8,13.6,0,18.7c-4.8,5.2-12.7,5.2-17.6,0c-4.8-5.2-4.8-13.6,0-18.7
						C951.5,281.3,959.3,281.3,964.2,286.5"/>
					<path id="Stroke-80" class="st6" d="M964.2,286.5c4.8,5.2,4.8,13.6,0,18.7c-4.8,5.2-12.7,5.2-17.6,0c-4.8-5.2-4.8-13.6,0-18.7
						C951.5,281.3,959.3,281.3,964.2,286.5L964.2,286.5z"/>
					<path id="Fill-82" class="st5" d="M922.9,290.5c3.4,3.6,3.4,9.5,0,13.1c-3.4,3.6-8.9,3.6-12.3,0c-3.4-3.6-3.4-9.5,0-13.1
						C914,286.9,919.5,286.9,922.9,290.5"/>
					<path id="Stroke-84" class="st6" d="M922.9,290.5c3.4,3.6,3.4,9.5,0,13.1c-3.4,3.6-8.9,3.6-12.3,0c-3.4-3.6-3.4-9.5,0-13.1
						C914,286.9,919.5,286.9,922.9,290.5L922.9,290.5z"/>
					<path id="Fill-86" class="st5" d="M941.1,205.6c3.4,3.6,3.4,9.5,0,13.1c-3.4,3.6-8.9,3.6-12.3,0c-3.4-3.6-3.4-9.5,0-13.1
						C932.2,202,937.7,202,941.1,205.6"/>
					<path id="Stroke-88" class="st4" d="M941.1,205.6c3.4,3.6,3.4,9.5,0,13.1c-3.4,3.6-8.9,3.6-12.3,0c-3.4-3.6-3.4-9.5,0-13.1
						C932.2,202,937.7,202,941.1,205.6L941.1,205.6z"/>
					<path id="Fill-90" class="st5" d="M980.6,236.2c3.4,3.6,3.4,9.5,0,13.1c-3.4,3.6-8.9,3.6-12.3,0c-3.4-3.6-3.4-9.5,0-13.1
						C971.7,232.5,977.2,232.5,980.6,236.2"/>
					<path id="Stroke-92" class="st4" d="M980.6,236.2c3.4,3.6,3.4,9.5,0,13.1c-3.4,3.6-8.9,3.6-12.3,0c-3.4-3.6-3.4-9.5,0-13.1
						C971.7,232.5,977.2,232.5,980.6,236.2L980.6,236.2z"/>
					<path id="Fill-94" class="st5" d="M1024.5,251c3.4,3.6,3.4,9.5,0,13.1c-3.4,3.6-8.9,3.6-12.3,0c-3.4-3.6-3.4-9.5,0-13.1
						C1015.6,247.4,1021.1,247.4,1024.5,251"/>
					<path id="Stroke-96" class="st4" d="M1024.5,251c3.4,3.6,3.4,9.5,0,13.1c-3.4,3.6-8.9,3.6-12.3,0c-3.4-3.6-3.4-9.5,0-13.1
						C1015.6,247.4,1021.1,247.4,1024.5,251L1024.5,251z"/>
					<path id="Fill-98" class="st5" d="M992,308.3c2.4,2.6,2.4,6.8,0,9.4c-2.4,2.6-6.4,2.6-8.8,0c-2.4-2.6-2.4-6.8,0-9.4
						C985.7,305.7,989.6,305.7,992,308.3"/>
					<path id="Stroke-100" class="st4" d="M992,308.3c2.4,2.6,2.4,6.8,0,9.4c-2.4,2.6-6.4,2.6-8.8,0c-2.4-2.6-2.4-6.8,0-9.4
						C985.7,305.7,989.6,305.7,992,308.3L992,308.3z"/>
					<path id="Fill-102" class="st5" d="M869.1,177.2c2.4,2.6,2.4,6.8,0,9.4c-2.4,2.6-6.4,2.6-8.8,0s-2.4-6.8,0-9.4
						C862.7,174.6,866.7,174.6,869.1,177.2"/>
					<path id="Stroke-104" class="st4" d="M869.1,177.2c2.4,2.6,2.4,6.8,0,9.4c-2.4,2.6-6.4,2.6-8.8,0s-2.4-6.8,0-9.4
						C862.7,174.6,866.7,174.6,869.1,177.2L869.1,177.2z"/>
					<path id="Fill-106" class="st5" d="M867.3,215.4c4.8,5.2,4.8,13.6,0,18.7c-4.8,5.2-12.7,5.2-17.6,0c-4.8-5.2-4.8-13.6,0-18.7
						C854.6,210.3,862.4,210.3,867.3,215.4"/>
					<path id="Stroke-108" class="st6" d="M867.3,215.4c4.8,5.2,4.8,13.6,0,18.7c-4.8,5.2-12.7,5.2-17.6,0c-4.8-5.2-4.8-13.6,0-18.7
						C854.6,210.3,862.4,210.3,867.3,215.4L867.3,215.4z"/>
					<path id="Stroke-110" class="st0" d="M172.7,194.3v-59.6c0-3.7-2.8-6.6-6.2-6.6h-31"/>
					<path id="Stroke-112" class="st0" d="M98.2,141.3h-31c-3.4,0-6.2,3-6.2,6.6v46.4"/>
					<path id="Stroke-114" class="st4" d="M197.6,48.6H36.2c-3.4,0-6.2,3-6.2,6.6v132.5c0,3.7,2.8,6.6,6.2,6.6h161.4
						c3.4,0,6.2-3,6.2-6.6V55.2C203.8,51.6,201,48.6,197.6,48.6L197.6,48.6z"/>
					<path id="Stroke-116" class="st8" d="M135.5,194.3V95c0-3.7-2.8-6.6-6.2-6.6h-24.8c-3.4,0-6.2,3-6.2,6.6v99.3"/>
					<path id="Fill-118" class="st5" d="M905.5,407.5c1.2,0,2.3-0.6,3-1.6l7.8-11.5c1.2-1.8,0.8-4.3-0.8-5.5c-1.7-1.3-4-0.9-5.2,0.9
						l-7.8,11.5c-1.2,1.8-0.8,4.3,0.8,5.6C904,407.2,904.8,407.5,905.5,407.5"/>
					<path id="Stroke-120" class="st1" d="M905.5,407.5c1.2,0,2.3-0.6,3-1.6l7.8-11.5c1.2-1.8,0.8-4.3-0.8-5.5
						c-1.7-1.3-4-0.9-5.2,0.9l-7.8,11.5c-1.2,1.8-0.8,4.3,0.8,5.6C904,407.2,904.8,407.5,905.5,407.5L905.5,407.5z"/>
					<path id="Fill-122" class="st5" d="M923.5,447.1c0.4,0,0.8,0,1.2-0.1c3.4-0.7,5.6-4.2,4.9-7.8l-6.4-35.4
						c-0.7-3.6-3.9-5.9-7.3-5.2c-3.4,0.7-5.6,4.2-4.9,7.8l6.4,35.4C918,444.9,920.6,447.1,923.5,447.1"/>
					<path id="Stroke-124" class="st4" d="M923.5,447.1c0.4,0,0.8,0,1.2-0.1c3.4-0.7,5.6-4.2,4.9-7.8l-6.4-35.4
						c-0.7-3.6-3.9-5.9-7.3-5.2c-3.4,0.7-5.6,4.2-4.9,7.8l6.4,35.4C918,444.9,920.6,447.1,923.5,447.1L923.5,447.1z"/>
					<path id="Fill-126" class="st5" d="M912.3,445.7c0.3,0,0.6,0,1-0.1c3.4-0.6,5.7-3.9,5.2-7.6l-2-13.9l8.9-13
						c2.5-2.5,2.6-6.7,0.2-9.4c-2.4-2.6-6.3-2.7-8.8-0.2L905.5,417c-1.5,1.5-2.1,3.7-1.8,5.8l2.5,17.3
						C906.6,443.4,909.3,445.7,912.3,445.7"/>
					<path id="Stroke-128" class="st1" d="M912.3,445.7c0.3,0,0.6,0,1-0.1c3.4-0.6,5.7-3.9,5.2-7.6l-2-13.9l8.9-13
						c2.5-2.5,2.6-6.7,0.2-9.4c-2.4-2.6-6.3-2.7-8.8-0.2L905.5,417c-1.5,1.5-2.1,3.7-1.8,5.8l2.5,17.3
						C906.6,443.4,909.3,445.7,912.3,445.7L912.3,445.7z"/>
					<polygon id="Fill-130" class="st5" points="917.2,371.2 920.9,371.2 920.9,365.4 917.2,365.4 					"/>
					<polygon id="Stroke-132" class="st4" points="917.2,371.2 920.9,371.2 920.9,365.4 917.2,365.4 					"/>
					<g id="Group-135" transform="translate(709.000000, 242.000000)">
						<path id="Fill-133" class="st5" d="M215.1,129.7c-1.4-1.2-3.2-1.9-5.1-1.9c-4.5,0-8.2,3.9-8.2,8.7v26c0,4.8,16.3,4.8,16.3,0
							v-26"/>
						<path id="Stroke-134" class="st4" d="M215.1,129.7c-1.4-1.2-3.2-1.9-5.1-1.9c-4.5,0-8.2,3.9-8.2,8.7v26c0,4.8,16.3,4.8,16.3,0
							v-26"/>
					</g>
					<path id="Fill-136" class="st5" d="M906.2,354.5c0,6.7,5.1,12.2,11.4,12.2s11.4-5.5,11.4-12.2s-5.1-12.2-11.4-12.2
						S906.2,347.8,906.2,354.5"/>
					<path id="Stroke-137" class="st1" d="M906.2,354.5c0,6.7,5.1,12.2,11.4,12.2s11.4-5.5,11.4-12.2s-5.1-12.2-11.4-12.2
						S906.2,347.8,906.2,354.5L906.2,354.5z"/>
					<path id="Fill-138" class="st5" d="M904.3,341.5c0-1.7,1.3-3.1,2.9-3.1c0.9,0,1.6,0.4,2.2,1c0.5-0.6,1.3-1,2.2-1
						c0.9,0,1.6,0.4,2.2,1c0.5-0.6,1.3-1,2.2-1c1.1,0,2,0.6,2.5,1.5h4.7c1.6,0,2.9,1.4,2.9,3.1c3.2,0,5.8,2.8,5.8,6.1
						c0,2.1-1,4-2.6,5.1v1.7c0,0.8-0.6,1.5-1.4,1.5s-1.4-0.7-1.4-1.5v-0.7v-2.6v-2c0-0.8-0.6-1.5-1.4-1.5v0H923v0h-14.4
						c-2.4,0-4.3-2.1-4.3-4.6V341.5z"/>
					<path id="Stroke-139" class="st4" d="M904.3,341.5c0-1.7,1.3-3.1,2.9-3.1c0.9,0,1.6,0.4,2.2,1c0.5-0.6,1.3-1,2.2-1
						c0.9,0,1.6,0.4,2.2,1c0.5-0.6,1.3-1,2.2-1c1.1,0,2,0.6,2.5,1.5h4.7c1.6,0,2.9,1.4,2.9,3.1c3.2,0,5.8,2.8,5.8,6.1
						c0,2.1-1,4-2.6,5.1v1.7c0,0.8-0.6,1.5-1.4,1.5s-1.4-0.7-1.4-1.5v-0.7v-2.6v-2c0-0.8-0.6-1.5-1.4-1.5v0H923v0h-14.4
						c-2.4,0-4.3-2.1-4.3-4.6V341.5L904.3,341.5z"/>
					<path id="Fill-140" class="st5" d="M927.2,404.2c2.1,0,3.7-1.8,3.7-4v-12.3c0-0.5-0.1-0.9-0.2-1.3l-4.2-12.6
						c-0.7-2.1-2.8-3.2-4.8-2.4c-1.9,0.7-3,3-2.3,5.1l3.9,12v11.6C923.5,402.4,925.2,404.2,927.2,404.2"/>
					<path id="Stroke-141" class="st4" d="M927.2,404.2c2.1,0,3.7-1.8,3.7-4v-12.3c0-0.5-0.1-0.9-0.2-1.3l-4.2-12.6
						c-0.7-2.1-2.8-3.2-4.8-2.4c-1.9,0.7-3,3-2.3,5.1l3.9,12v11.6C923.5,402.4,925.2,404.2,927.2,404.2L927.2,404.2z"/>
					<g id="Group-144" transform="translate(504.000000, 240.000000)">
						<path id="Fill-142" class="st5" d="M152.7,166.3v-33.1c0-3.7,2.8-6.6,6.2-6.6h37.3c3.4,0,6.2,3,6.2,6.6v33.1"/>
						<path id="Stroke-143" class="st7" d="M152.7,166.3v-33.1c0-3.7,2.8-6.6,6.2-6.6h37.3c3.4,0,6.2,3,6.2,6.6v33.1"/>
					</g>
					<g id="Group-147" transform="translate(434.000000, 240.000000)">
						<path id="Fill-145" class="st5" d="M135.8,166.3v-33.1c0-3.7,2.8-6.6,6.2-6.6h37.3c3.4,0,6.2,3,6.2,6.6v33.1"/>
						<path id="Stroke-146" class="st4" d="M135.8,166.3v-33.1c0-3.7,2.8-6.6,6.2-6.6h37.3c3.4,0,6.2,3,6.2,6.6v33.1"/>
					</g>
					<g id="Group-150" transform="translate(644.000000, 240.000000)">
						<path id="Fill-148" class="st5" d="M186.5,166.3v-33.1c0-3.7,2.8-6.6,6.2-6.6H230c3.4,0,6.2,3,6.2,6.6v33.1"/>
						<path id="Stroke-149" class="st7" d="M186.5,166.3v-33.1c0-3.7,2.8-6.6,6.2-6.6H230c3.4,0,6.2,3,6.2,6.6v33.1"/>
					</g>
					<g id="Group-153" transform="translate(574.000000, 240.000000)">
						<path id="Fill-151" class="st5" d="M169.6,166.3v-33.1c0-3.7,2.8-6.6,6.2-6.6H213c3.4,0,6.2,3,6.2,6.6v33.1"/>
						<path id="Stroke-152" class="st4" d="M169.6,166.3v-33.1c0-3.7,2.8-6.6,6.2-6.6H213c3.4,0,6.2,3,6.2,6.6v33.1"/>
					</g>
					<g id="Group-156" transform="translate(364.000000, 240.000000)">
						<path id="Fill-154" class="st5" d="M118.8,166.3v-33.1c0-3.7,2.8-6.6,6.2-6.6h37.3c3.4,0,6.2,3,6.2,6.6v33.1"/>
						<path id="Stroke-155" class="st7" d="M118.8,166.3v-33.1c0-3.7,2.8-6.6,6.2-6.6h37.3c3.4,0,6.2,3,6.2,6.6v33.1"/>
					</g>
					<g id="Group-159" transform="translate(294.000000, 240.000000)">
						<path id="Fill-157" class="st5" d="M101.9,166.3v-33.1c0-3.7,2.8-6.6,6.2-6.6h37.3c3.4,0,6.2,3,6.2,6.6v33.1"/>
						<path id="Stroke-158" class="st4" d="M101.9,166.3v-33.1c0-3.7,2.8-6.6,6.2-6.6h37.3c3.4,0,6.2,3,6.2,6.6v33.1"/>
					</g>
					<path id="Stroke-160" class="st4" d="M154.1,288.4H169c4.1,0,7.5-3.6,7.5-7.9v-23.8c0-13.2-10-23.8-22.4-23.8
						c-12.3,0-22.4,10.7-22.4,23.8v18.5"/>
					<path id="Stroke-161" class="st3" d="M139.2,275.1v-18.5"/>
					<path id="Stroke-162" class="st3" d="M169,275.1v-18.5"/>
					<path id="Stroke-163" class="st7" d="M197.6,220.8h-86.9c-3.4,0-6.2,3-6.2,6.6v66.2c0,3.7,2.8,6.6,6.2,6.6h80.7l12.4,13.2
						v-19.9v-6.6v-59.6C203.8,223.8,201,220.8,197.6,220.8L197.6,220.8z"/>
					<path id="Fill-164" class="st5" d="M489.8,447.1L489.8,447.1c-3,0-5.4-2.6-5.4-5.8v-38.9h10.9v38.9
						C495.3,444.5,492.8,447.1,489.8,447.1"/>
					<path id="Stroke-165" class="st1" d="M489.8,447.1L489.8,447.1c-3,0-5.4-2.6-5.4-5.8v-38.9h10.9v38.9
						C495.3,444.5,492.8,447.1,489.8,447.1L489.8,447.1z"/>
					<path id="Fill-166" class="st5" d="M498.8,352c-0.6-6.7-5.8-12.1-12.2-12.1c-6.8,0-12.3,5.9-12.3,13.1v25.8h22.4v-21.6
						C498,355.1,498.8,352.4,498.8,352"/>
					<path id="Stroke-167" class="st4" d="M498.8,352c-0.6-6.7-5.8-12.1-12.2-12.1c-6.8,0-12.3,5.9-12.3,13.1v25.8h22.4v-21.6
						C498,355.1,498.8,352.4,498.8,352L498.8,352z"/>
					<polygon id="Fill-168" class="st5" points="485.2,370.5 489,370.5 489,364.7 485.2,364.7 					"/>
					<polygon id="Stroke-169" class="st4" points="485.2,370.5 489,370.5 489,364.7 485.2,364.7 					"/>
					<path id="Fill-170" class="st5" d="M498.8,352c-2.4,0-4.6-1.6-5.3-3.9c-0.7,2.3-2.8,3.9-5.1,3.9h-11.2c0,0.4,0,0.6,0,1
						c0,1.1,0.1,2.2,0.4,3.2c-0.3,0.5-0.5,1-0.5,1.7c0,1.6,1.2,2.9,2.7,2.9c0,0,0.1,0,0.1,0c2,2.4,4.9,3.9,8.1,3.9
						c6,0,10.9-5.2,10.9-11.6C498.8,352.7,498.8,352.3,498.8,352"/>
					<path id="Stroke-171" class="st1" d="M498.8,352c-2.4,0-4.6-1.6-5.3-3.9c-0.7,2.3-2.8,3.9-5.1,3.9h-11.2c0,0.4,0,0.6,0,1
						c0,1.1,0.1,2.2,0.4,3.2c-0.3,0.5-0.5,1-0.5,1.7c0,1.6,1.2,2.9,2.7,2.9c0,0,0.1,0,0.1,0c2,2.4,4.9,3.9,8.1,3.9
						c6,0,10.9-5.2,10.9-11.6C498.8,352.7,498.8,352.3,498.8,352L498.8,352z"/>
					<path id="Fill-172" class="st5" d="M473.9,440.4L473.9,440.4c-2.5-1.7-3.3-5.3-1.6-8l6.4-11.8c0.6-1,0.9-2.1,0.9-3.3l-0.6-17.7
						l10.9-0.3l0.6,19.5c0.1,2.3-0.5,4.6-1.7,6.5l-7.3,13.3C479.8,441.3,476.4,442.1,473.9,440.4"/>
					<path id="Stroke-173" class="st1" d="M473.9,440.4L473.9,440.4c-2.5-1.7-3.3-5.3-1.6-8l6.4-11.8c0.6-1,0.9-2.1,0.9-3.3
						l-0.6-17.7l10.9-0.3l0.6,19.5c0.1,2.3-0.5,4.6-1.7,6.5l-7.3,13.3C479.8,441.3,476.4,442.1,473.9,440.4L473.9,440.4z"/>
					<path id="Fill-174" class="st5" d="M506.3,400.6c-0.5,0-1.1-0.2-1.6-0.5l-6.6-5c-0.4-0.3-0.7-0.7-0.9-1.1l-7.3-16.5
						c-0.6-1.5-0.1-3.2,1.3-3.9c1.4-0.7,3-0.1,3.6,1.4l7,15.8l6,4.5c1.2,0.9,1.5,2.7,0.6,4.1C508,400.2,507.1,400.6,506.3,400.6"/>
					<path id="Stroke-175" class="st1" d="M506.3,400.6c-0.5,0-1.1-0.2-1.6-0.5l-6.6-5c-0.4-0.3-0.7-0.7-0.9-1.1l-7.3-16.5
						c-0.6-1.5-0.1-3.2,1.3-3.9c1.4-0.7,3-0.1,3.6,1.4l7,15.8l6,4.5c1.2,0.9,1.5,2.7,0.6,4.1C508,400.2,507.1,400.6,506.3,400.6
						L506.3,400.6z"/>
					<g id="Group-178" transform="translate(361.000000, 242.000000)">
						<path id="Fill-176" class="st5" d="M121,128.9c1.4-1.2,3.2-1.9,5.1-1.9c4.5,0,8.2,3.9,8.2,8.7v26c0,4.8-16.3,4.8-16.3,0v-26"
							/>
						<path id="Stroke-177" class="st4" d="M121,128.9c1.4-1.2,3.2-1.9,5.1-1.9c4.5,0,8.2,3.9,8.2,8.7v26c0,4.8-16.3,4.8-16.3,0v-26
							"/>
					</g>
					<g id="Group-181" transform="translate(353.000000, 243.000000)">
						<path id="Fill-179" class="st5" d="M129.5,135.7l-7.3,7.8l7.4,13.2c0.8,1.4,0.3,3.2-0.9,4c-0.4,0.3-0.9,0.4-1.4,0.4
							c-0.9,0-1.8-0.5-2.3-1.4l-8.4-15.1c-0.6-1.1-0.5-2.6,0.4-3.5l12.2-13.2"/>
						<path id="Stroke-180" class="st4" d="M129.5,135.7l-7.3,7.8l7.4,13.2c0.8,1.4,0.3,3.2-0.9,4c-0.4,0.3-0.9,0.4-1.4,0.4
							c-0.9,0-1.8-0.5-2.3-1.4l-8.4-15.1c-0.6-1.1-0.5-2.6,0.4-3.5l12.2-13.2"/>
					</g>
				</g>
			</g>
			
				<g id="Group-66" transform="translate(874.623841, 156.069185) rotate(-50.000000) translate(-874.623841, -156.069185) translate(854.623841, 131.569185)">
				<polygon id="Stroke-9" class="st9" points="89.5,303.7 95.9,303.5 96.1,298.7 89.7,298.9 				"/>
				<polygon id="Stroke-11" class="st9" points="95.9,303.5 102.3,303.3 102.5,298.5 96.1,298.7 				"/>
				<path id="Stroke-12_1_" class="st9" d="M98.5,292.3l0.3-9.5"/>
				<polygon id="Stroke-13" class="st9" points="102.3,303.3 108.7,303.1 108.9,298.3 102.5,298.5 				"/>
				<polyline id="Stroke-14_1_" class="st4" points="89.1,299 73.1,299.5 73.2,296.3 				"/>
				<polyline id="Stroke-15" class="st4" points="124.5,294.7 124.4,297.8 108.3,298.4 				"/>
				<path id="Stroke-18" class="st9" d="M109.3,269.8l-0.8,25.4l16-0.5C124.9,282,108.9,280.9,109.3,269.8L109.3,269.8z"/>
				<path id="Stroke-19" class="st9" d="M90,270.4l-0.8,25.4l-16,0.5C73.6,283.6,89.7,281.5,90,270.4L90,270.4z"/>
				<path id="Stroke-20_1_" class="st4" d="M100.6,241.6c-5.3,0.2-10.1,14.9-10.2,19.3l-1.2,38l19.2-0.6l1.2-38
					C109.7,255.9,105.9,241.4,100.6,241.6L100.6,241.6z"/>
				<path id="Fill-21" class="st10" d="M104.1,258.9c0.4,0,0.7-0.4,0.7-0.8c-0.3-2.3-2.2-3.9-4.7-3.9s-4.5,1.9-4.9,4.2
					c-0.1,0.4,0.2,0.7,0.6,0.7L104.1,258.9z"/>
			</g>
		</g>
	</g>
</g>
</svg>
