<svg id="Layer_1" data-name="Layer 1" xmlns="http://www.w3.org/2000/svg" xmlns:xlink="http://www.w3.org/1999/xlink" viewBox="0 0 2560 1600"><defs><style>.cls-1,.cls-4,.cls-5,.cls-6,.cls-7{fill:none;}.cls-2{clip-path:url(#clip-path);}.cls-3{fill:#e6e6e6;}.cls-4,.cls-6,.cls-7{stroke:#3fa9f5;}.cls-10,.cls-4,.cls-6,.cls-7{stroke-miterlimit:10;}.cls-4{stroke-width:7px;}.cls-5{stroke:#000;stroke-width:0.3px;}.cls-6,.cls-7{stroke-width:10px;}.cls-6{stroke-dasharray:35 25;}.cls-7{stroke-dasharray:34.73 24.81;}.cls-10,.cls-8{fill:#00bfb3;}.cls-9{fill:#3fa9f5;}.cls-10{stroke:#00bfb3;stroke-width:9px;}</style><clipPath id="clip-path"><rect class="cls-1" width="2560" height="1599"/></clipPath></defs><title>Artboard 6</title><g class="cls-2"><rect class="cls-1" x="-4.88" y="-3.49" width="2560" height="1600" transform="translate(-189.75 1134.94) rotate(-45)"/><rect class="cls-3" width="2560" height="1600"/><rect class="cls-4" x="-566.5" y="-1034.5" width="3679" height="3679" transform="translate(-196.37 1135.93) rotate(-45)"/><line class="cls-4" x1="839.43" y1="2972.87" x2="3440.87" y2="371.43"/><line class="cls-4" x1="405.85" y1="2539.3" x2="3007.3" y2="-62.15"/><line class="cls-4" x1="-27.72" y1="2105.72" x2="2573.72" y2="-495.72"/><line class="cls-4" x1="-83.15" y1="1294" x2="2140.15" y2="-929.3"/><line class="cls-5" x1="27.33" y1="1237.53" x2="-8.67" y2="1237.53"/><line class="cls-4" x1="-87.52" y1="431.23" x2="1706.57" y2="-1362.87"/><line class="cls-4" x1="839.43" y1="-1362.87" x2="3440.87" y2="1238.57"/><line class="cls-4" x1="405.85" y1="-929.3" x2="3007.3" y2="1672.15"/><line class="cls-4" x1="-27.72" y1="-495.72" x2="2573.72" y2="2105.72"/><line class="cls-4" x1="-96.88" y1="302.27" x2="2140.15" y2="2539.3"/><line class="cls-4" x1="-87.53" y1="1178.77" x2="1706.57" y2="2972.87"/><line class="cls-5" x1="22.95" y1="314.95" x2="-13.05" y2="314.95"/><line class="cls-5" x1="22.95" y1="1235.25" x2="-13.05" y2="1235.25"/><line class="cls-6" x1="405.5" y1="1695" x2="405.5" y2="-32.5"/><line class="cls-6" x1="405.5" y1="-20" x2="405.5" y2="1707.5"/><line class="cls-6" x1="840.5" y1="1609" x2="840.5" y2="-118.5"/><line class="cls-6" x1="840.5" y1="-106" x2="840.5" y2="1621.5"/><line class="cls-6" x1="1273.5" y1="1684" x2="1273.5" y2="-43.5"/><line class="cls-6" x1="1273.5" y1="-31" x2="1273.5" y2="1696.5"/><line class="cls-6" x1="1706.5" y1="1601" x2="1706.5" y2="-126.5"/><line class="cls-6" x1="1706.5" y1="-114" x2="1706.5" y2="1613.5"/><line class="cls-6" x1="2139.5" y1="1735" x2="2139.5" y2="7.5"/><line class="cls-6" x1="2139.5" y1="20" x2="2139.5" y2="1747.5"/><line class="cls-7" x1="2847.69" y1="370.99" x2="1.91" y2="370.99"/><line class="cls-7" x1="14.31" y1="371" x2="2860.09" y2="371"/><line class="cls-7" x1="2765.69" y1="804.99" x2="-80.09" y2="804.99"/><line class="cls-7" x1="-67.69" y1="805" x2="2778.09" y2="805"/><line class="cls-7" x1="2747.69" y1="1238.99" x2="-98.09" y2="1238.99"/><line class="cls-7" x1="-85.69" y1="1239" x2="2760.09" y2="1239"/><circle class="cls-8" cx="840" cy="371" r="55"/><circle class="cls-8" cx="1707" cy="371" r="55"/><circle class="cls-8" cx="2140" cy="805" r="55"/><circle class="cls-8" cx="2574" cy="371" r="55"/><circle class="cls-8" cx="1275" cy="805" r="55"/><circle class="cls-8" cx="1707" cy="1239" r="55"/><circle class="cls-8" cx="839" cy="1239" r="55"/><circle class="cls-8" cx="405" cy="805" r="55"/><circle class="cls-8" cx="-28" cy="1239" r="55"/><path class="cls-8" d="M-67,332.18A54.83,54.83,0,0,1-28,316a55,55,0,0,1,55,55,55,55,0,0,1-55,55,55,55,0,0,1-55-55,54.83,54.83,0,0,1,16-38.82"/><circle class="cls-8" cx="2567" cy="1239" r="55"/><circle class="cls-9" cx="1275.5" cy="1239.5" r="32.5"/><circle class="cls-9" cx="1706.5" cy="805.5" r="32.5"/><circle class="cls-9" cx="2140.5" cy="1239.5" r="32.5"/><circle class="cls-9" cx="1272.5" cy="371.5" r="32.5"/><circle class="cls-9" cx="2139.5" cy="370.5" r="32.5"/><circle class="cls-9" cx="839.5" cy="804.5" r="32.5"/><circle class="cls-9" cx="405.5" cy="371.5" r="32.5"/><circle class="cls-9" cx="404.5" cy="1239.5" r="32.5"/><path class="cls-8" d="M572,433l-6.09-1.67a2.74,2.74,0,0,0-2.31.25,3.19,3.19,0,0,0-1.52,1.91L525.47,560.25a2.94,2.94,0,0,0,.25,2.4,3.19,3.19,0,0,0,1.91,1.52l6.09,1.67a2.73,2.73,0,0,0,2.31-.24,3.2,3.2,0,0,0,1.52-1.91L574.15,437a2.94,2.94,0,0,0-.25-2.41A3.19,3.19,0,0,0,572,433Z"/><path class="cls-8" d="M517.13,457.78a3.1,3.1,0,0,0-1-2.26l-4.91-4.91a3.09,3.09,0,0,0-4.52,0L461,496.35a3.09,3.09,0,0,0,0,4.52l45.74,45.74a3.09,3.09,0,0,0,4.52,0l4.91-4.91a3.09,3.09,0,0,0,0-4.52l-38.58-38.58L516.15,460A3.1,3.1,0,0,0,517.13,457.78Z"/><path class="cls-8" d="M638.64,496.35,592.9,450.61a3.09,3.09,0,0,0-4.52,0l-4.91,4.91a3.09,3.09,0,0,0,0,4.52l38.58,38.58-38.58,38.58a3.09,3.09,0,0,0,0,4.52l4.91,4.91a3.09,3.09,0,0,0,4.52,0l45.74-45.74a3.09,3.09,0,0,0,0-4.52Z"/><path class="cls-8" d="M1344.45,189.16c1.56,10.13,3.12,12.47,3.12,22.6,0,6.24-11.69,11.69-11.69,11.69v7.79s11.69,5.46,11.69,11.69c0,10.13-1.56,12.47-3.12,22.6-2.34,16.37,6.24,24.16,14,24.16h16.37V274.13s-14,1.56-14-7.79c0-7,1.56-7,3.12-22.6.78-7-3.9-12.47-8.57-16.37,4.68-3.9,9.35-8.57,8.57-15.59-2.34-15.59-3.12-15.59-3.12-22.6,0-9.35,14-8.57,14-8.57V165h-16.37C1349.91,165,1342.11,172.79,1344.45,189.16Z"/><path class="cls-8" d="M1436.43,189.16c-1.56,10.13-3.12,12.47-3.12,22.6,0,6.24,11.69,11.69,11.69,11.69v7.79s-11.69,5.46-11.69,11.69c0,10.13,1.56,12.47,3.12,22.6,2.34,16.37-6.24,24.16-14,24.16H1406V274.13s14,1.56,14-7.79c0-7-1.56-7-3.12-22.6-.78-7,3.9-12.47,8.57-16.37-4.68-3.9-9.35-8.57-8.57-15.59,1.56-15.59,3.12-15.59,3.12-22.6,0-9.35-14-8.57-14-8.57V165h16.37C1431,165,1438.76,172.79,1436.43,189.16Z"/><path class="cls-10" d="M2041.47,1118.46c-1.38-23.47-20.73-42.23-44-42.23a46,46,0,0,0-36.37,18.27c-.2-.1-.4-.17-.6-.27-.52-.25-1-.49-1.58-.7l-.89-.33c-.53-.19-1.07-.35-1.61-.5-.3-.08-.6-.16-.9-.23-.59-.13-1.19-.23-1.79-.33-.26,0-.52-.09-.79-.12a23.4,23.4,0,0,0-26.1,23.31c0,.33,0,.66,0,1h0a36.06,36.06,0,0,0-18.3,30.7,33.53,33.53,0,0,0,33.5,33.5h63.91c.27,0,.54,0,.81,0l.16,0,.35,0c.27,0,.53,0,.81,0h25.56a31.4,31.4,0,0,0,31.37-31.37A32.09,32.09,0,0,0,2041.47,1118.46Zm-7.83,56.86h-25.56l-.45,0-.71,0-.52,0-.45,0H1942a28.31,28.31,0,0,1-28.28-28.28c0-10.83,7.05-22.08,16.78-26.74l1.48-.71V1118c0-.33,0-.67,0-1l0-.42,0-.55c0-.21,0-.42,0-.64a18.13,18.13,0,0,1,20.64-18.08l.61.09a17.78,17.78,0,0,1,2.06.46l.28.07a17.76,17.76,0,0,1,2.18.84l.55.26a18.22,18.22,0,0,1,10.2,16.35,2.61,2.61,0,1,0,5.22,0,23.42,23.42,0,0,0-8.34-17.92,41.31,41.31,0,0,1,32-16c20.2,0,37,16,38.72,36.22a49.81,49.81,0,0,0-10.65.32,2.61,2.61,0,0,0,.39,5.19,2.5,2.5,0,0,0,.39,0,47.9,47.9,0,0,1,12.21,0,26.73,26.73,0,0,1,21.29,26A26.18,26.18,0,0,1,2033.63,1175.33Z"/></g></svg>