<?xml version="1.0" encoding="utf-8"?>
<!-- Generator: Adobe Illustrator 21.0.0, SVG Export Plug-In . SVG Version: 6.00 Build 0)  -->
<svg version="1.1" id="Capa_1" xmlns="http://www.w3.org/2000/svg" xmlns:xlink="http://www.w3.org/1999/xlink" x="0px" y="0px"
	 viewBox="0 0 512 512" style="enable-background:new 0 0 512 512;" xml:space="preserve">
<style type="text/css">
	.st0{fill:#0077B7;}
</style>
<g>
	<g>
		<path class="st0" d="M466.3,512c11.5,0,21.5-5.1,30-15.3L351.2,300.8c-3.5,3.4-6.9,6.6-10,9.8c-10.9,10.8-19.7,19.2-26.4,25.3
			c-6.8,6.1-15.8,12.2-27,18.5c-11.2,6.3-21.7,9.5-31.4,9.5H256h-0.3c-9.7,0-20.2-3.1-31.4-9.5c-11.2-6.3-20.2-12.5-27-18.5
			c-6.8-6-15.6-14.5-26.4-25.3c-3-3-6.4-6.3-10-9.8l-145.1,196c8.5,10.1,18.5,15.3,30,15.3H466.3z"/>
		<path class="st0" d="M28.9,196.5C18,187.2,8.4,176.6,0,164.6V448l127.9-164.2C102.3,260.9,69.3,231.8,28.9,196.5z"/>
		<path class="st0" d="M483.4,198c-38.9,33.3-72,62.1-99.2,86.1L512,446V166.6C503.8,178.2,494.3,188.6,483.4,198z"/>
		<path class="st0" d="M466.3,0H45.7C31,0,19.8,6,11.9,18C4,30.1,0,45.1,0,63.1c0,14.6,5.2,30.4,15.7,47.4
			c10.5,17,21.6,30.4,33.4,40.1c6.5,5.6,26,22,58.6,49.4c17.6,14.8,32.9,27.7,46,38.8c11.2,9.5,20.9,17.7,28.8,24.5
			c0.9,0.8,2.4,2,4.3,3.7c2.1,1.8,4.7,4.1,7.9,6.9c6.2,5.4,11.3,9.8,15.4,13.2c4.1,3.4,9,7.1,14.9,11.3c5.8,4.2,11.3,7.3,16.4,9.4
			c5.1,2.1,9.9,3.1,14.3,3.1h0.3h0.3c4.4,0,9.1-1,14.3-3.1c5.1-2.1,10.6-5.2,16.4-9.4c5.8-4.2,10.8-7.9,14.9-11.3
			c4.1-3.4,9.2-7.8,15.4-13.2c3.2-2.8,5.8-5.1,7.9-6.9c1.9-1.7,3.4-2.9,4.3-3.7c6.2-5.2,15.9-13.4,28.9-24.4
			c23.7-20,58.6-49.4,104.8-88.4c13.9-11.8,25.5-26,34.9-42.7c9.3-16.6,14-34.1,14-52.4c0-15.3-4.5-28.3-13.6-39.2
			C489.4,5.4,478.7,0,466.3,0z"/>
	</g>
</g>
</svg>
