<?xml version="1.0" encoding="utf-8"?>
<!-- Generator: Adobe Illustrator 21.0.0, SVG Export Plug-In . SVG Version: 6.00 Build 0)  -->
<svg version="1.1" id="Layer_1" xmlns="http://www.w3.org/2000/svg" xmlns:xlink="http://www.w3.org/1999/xlink" x="0px" y="0px"
	 viewBox="0 0 2560 1600" style="enable-background:new 0 0 2560 1600;" xml:space="preserve">
<style type="text/css">
	.st0{fill:none;}
	.st1{fill:#E6E6E6;}
	.st2{fill:none;stroke:#3FA9F5;stroke-width:7;stroke-miterlimit:10;}
	.st3{fill:none;stroke:#000000;stroke-width:0.3;}
	.st4{fill:none;stroke:#3FA9F5;stroke-width:21;stroke-miterlimit:10;}
	.st5{fill:none;stroke:#3FA9F5;stroke-width:10;stroke-miterlimit:10;}
	.st6{fill:none;stroke:#3FA9F5;stroke-width:10;stroke-miterlimit:10;stroke-dasharray:35,25;}
	.st7{fill:none;stroke:#3FA9F5;stroke-width:10;stroke-miterlimit:10;stroke-dasharray:34.7349,24.8107;}
	.st8{fill:#00BFB3;}
	.st9{fill:#3FA9F5;}
	.st10{fill:#00BFB3;stroke:#00BFB3;stroke-width:9;stroke-miterlimit:10;}
</style>
<rect x="-4.9" y="-3.5" transform="matrix(0.7071 -0.7071 0.7071 0.7071 -189.7466 1134.9407)" class="st0" width="2560" height="1600"/>
<rect class="st1" width="2560" height="1600"/>
<g>
	
		<rect x="-566.5" y="-1034.5" transform="matrix(0.7071 -0.7071 0.7071 0.7071 -196.3679 1135.926)" class="st2" width="3679" height="3679"/>
	<line class="st2" x1="839.4" y1="2972.9" x2="3440.9" y2="371.4"/>
	<line class="st2" x1="405.9" y1="2539.3" x2="3007.3" y2="-62.1"/>
	<line class="st2" x1="-27.7" y1="2105.7" x2="2573.7" y2="-495.7"/>
	<line class="st2" x1="-83.1" y1="1294" x2="2140.1" y2="-929.3"/>
	<g>
		<line class="st3" x1="27.3" y1="1237.5" x2="-8.7" y2="1237.5"/>
	</g>
	<line class="st2" x1="-87.5" y1="431.2" x2="1706.6" y2="-1362.9"/>
	<line class="st2" x1="839.4" y1="-1362.9" x2="3440.9" y2="1238.6"/>
	<line class="st2" x1="405.9" y1="-929.3" x2="3007.3" y2="1672.1"/>
	<line class="st2" x1="-27.7" y1="-495.7" x2="2573.7" y2="2105.7"/>
	<line class="st2" x1="-96.9" y1="302.3" x2="2140.1" y2="2539.3"/>
	<line class="st2" x1="-87.5" y1="1178.8" x2="1706.6" y2="2972.9"/>
	<g>
		<line class="st3" x1="22.9" y1="315" x2="-13.1" y2="315"/>
		<line class="st3" x1="22.9" y1="1235.2" x2="-13.1" y2="1235.2"/>
	</g>
</g>
<g>
	<g>
		<line class="st6" x1="405.5" y1="1695" x2="405.5" y2="-32.5"/>
		<line class="st6" x1="405.5" y1="-20" x2="405.5" y2="1707.5"/>
	</g>
</g>
<g>
	<g>
		<polyline class="st5" points="840.5,1599 840.5,1616.5 840.5,1599 		"/>
		<line class="st6" x1="840.5" y1="1574" x2="840.5" y2="-153.5"/>
		<line class="st6" x1="840.5" y1="-141" x2="840.5" y2="1586.5"/>
	</g>
</g>
<g>
	<g>
		<line class="st6" x1="1273.5" y1="1692" x2="1273.5" y2="-35.5"/>
		<line class="st6" x1="1273.5" y1="-23" x2="1273.5" y2="1704.5"/>
	</g>
</g>
<g>
	<g>
		<line class="st6" x1="1706.5" y1="1582" x2="1706.5" y2="-145.5"/>
		<line class="st6" x1="1706.5" y1="-133" x2="1706.5" y2="1594.5"/>
	</g>
</g>
<g>
	<g>
		<line class="st6" x1="2139.5" y1="1735" x2="2139.5" y2="7.5"/>
		<line class="st6" x1="2139.5" y1="20" x2="2139.5" y2="1747.5"/>
	</g>
</g>
<g>
	<g>
		<line class="st7" x1="2847.7" y1="371" x2="1.9" y2="371"/>
		<line class="st7" x1="14.3" y1="371" x2="2860.1" y2="371"/>
	</g>
</g>
<g>
	<g>
		<line class="st7" x1="2765.7" y1="805" x2="-80.1" y2="805"/>
		<line class="st7" x1="-67.7" y1="805" x2="2778.1" y2="805"/>
	</g>
</g>
<g>
	<g>
		<line class="st7" x1="2747.7" y1="1239" x2="-98.1" y2="1239"/>
		<line class="st7" x1="-85.7" y1="1239" x2="2760.1" y2="1239"/>
	</g>
</g>
<circle class="st8" cx="840" cy="371" r="55"/>
<circle class="st8" cx="1707" cy="371" r="55"/>
<circle class="st8" cx="2140" cy="805" r="55"/>
<circle class="st8" cx="2574" cy="371" r="55"/>
<circle class="st8" cx="1275" cy="805" r="55"/>
<circle class="st8" cx="1707" cy="1239" r="55"/>
<circle class="st8" cx="839" cy="1239" r="55"/>
<circle class="st8" cx="405" cy="805" r="55"/>
<circle class="st8" cx="-28" cy="1239" r="55"/>
<path class="st8" d="M-67,332.2c10-10,23.7-16.2,39-16.2c30.4,0,55,24.6,55,55s-24.6,55-55,55s-55-24.6-55-55
	C-83,355.8-76.9,342.1-67,332.2"/>
<circle class="st8" cx="2567" cy="1239" r="55"/>
<circle class="st9" cx="1275.5" cy="1239.5" r="32.5"/>
<circle class="st9" cx="1706.5" cy="805.5" r="32.5"/>
<circle class="st9" cx="2140.5" cy="1239.5" r="32.5"/>
<circle class="st9" cx="1272.5" cy="371.5" r="32.5"/>
<circle class="st9" cx="2139.5" cy="370.5" r="32.5"/>
<circle class="st9" cx="839.5" cy="804.5" r="32.5"/>
<circle class="st9" cx="405.5" cy="371.5" r="32.5"/>
<circle class="st9" cx="404.5" cy="1239.5" r="32.5"/>
<g>
	<g>
		<path class="st8" d="M572,433l-6.1-1.7c-0.8-0.3-1.6-0.2-2.3,0.2c-0.8,0.4-1.3,1.1-1.5,1.9l-36.6,126.7c-0.3,0.9-0.2,1.7,0.2,2.4
			c0.4,0.8,1.1,1.3,1.9,1.5l6.1,1.7c0.8,0.3,1.6,0.2,2.3-0.2c0.8-0.4,1.3-1.1,1.5-1.9L574.2,437c0.3-0.9,0.2-1.7-0.2-2.4
			C573.5,433.8,572.8,433.3,572,433z"/>
		<path class="st8" d="M517.1,457.8c0-0.9-0.3-1.6-1-2.3l-4.9-4.9c-0.7-0.7-1.4-1-2.3-1s-1.6,0.3-2.3,1L461,496.4
			c-0.7,0.7-1,1.4-1,2.3s0.3,1.6,1,2.3l45.7,45.7c0.7,0.7,1.4,1,2.3,1s1.6-0.3,2.3-1l4.9-4.9c0.7-0.7,1-1.4,1-2.3
			c0-0.8-0.3-1.6-1-2.3l-38.6-38.6l38.6-38.6C516.8,459.4,517.1,458.6,517.1,457.8z"/>
		<path class="st8" d="M638.6,496.4l-45.7-45.7c-0.7-0.7-1.4-1-2.3-1c-0.9,0-1.6,0.3-2.3,1l-4.9,4.9c-0.7,0.7-1,1.4-1,2.3
			s0.3,1.6,1,2.3l38.6,38.6l-38.6,38.6c-0.7,0.7-1,1.4-1,2.3c0,0.9,0.3,1.6,1,2.3l4.9,4.9c0.7,0.7,1.4,1,2.3,1c0.8,0,1.6-0.3,2.3-1
			l45.7-45.7c0.7-0.7,1-1.4,1-2.3C639.6,497.8,639.3,497,638.6,496.4z"/>
	</g>
</g>
<path class="st8" d="M1344.4,189.2c1.6,10.1,3.1,12.5,3.1,22.6c0,6.2-11.7,11.7-11.7,11.7v7.8c0,0,11.7,5.5,11.7,11.7
	c0,10.1-1.6,12.5-3.1,22.6c-2.3,16.4,6.2,24.2,14,24.2c7.8,0,16.4,0,16.4,0v-15.6c0,0-14,1.6-14-7.8c0-7,1.6-7,3.1-22.6
	c0.8-7-3.9-12.5-8.6-16.4c4.7-3.9,9.4-8.6,8.6-15.6c-2.3-15.6-3.1-15.6-3.1-22.6c0-9.4,14-8.6,14-8.6V165c0,0-7.8,0-16.4,0
	S1342.1,172.8,1344.4,189.2z"/>
<path class="st8" d="M1436.4,189.2c-1.6,10.1-3.1,12.5-3.1,22.6c0,6.2,11.7,11.7,11.7,11.7v7.8c0,0-11.7,5.5-11.7,11.7
	c0,10.1,1.6,12.5,3.1,22.6c2.3,16.4-6.2,24.2-14,24.2s-16.4,0-16.4,0v-15.6c0,0,14,1.6,14-7.8c0-7-1.6-7-3.1-22.6
	c-0.8-7,3.9-12.5,8.6-16.4c-4.7-3.9-9.4-8.6-8.6-15.6c1.6-15.6,3.1-15.6,3.1-22.6c0-9.4-14-8.6-14-8.6V165c0,0,7.8,0,16.4,0
	S1438.8,172.8,1436.4,189.2z"/>
<path class="st10" d="M2041.5,1118.5c-1.4-23.5-20.7-42.2-44-42.2c-14.2,0-27.9,6.9-36.4,18.3c-0.2-0.1-0.4-0.2-0.6-0.3
	c-0.5-0.3-1-0.5-1.6-0.7c-0.3-0.1-0.6-0.2-0.9-0.3c-0.5-0.2-1.1-0.3-1.6-0.5c-0.3-0.1-0.6-0.2-0.9-0.2c-0.6-0.1-1.2-0.2-1.8-0.3
	c-0.3,0-0.5-0.1-0.8-0.1c-0.9-0.1-1.7-0.2-2.6-0.2c-12.9,0-23.5,10.5-23.5,23.5c0,0.3,0,0.7,0,1v0c-10.8,5.9-18.3,18.3-18.3,30.7
	c0,18.5,15,33.5,33.5,33.5h63.9c0.3,0,0.5,0,0.8,0l0.2,0l0.3,0c0.3,0,0.5,0,0.8,0h25.6c17.3,0,31.4-14.1,31.4-31.4
	C2065,1134.9,2055,1122,2041.5,1118.5z M2033.6,1175.3h-25.6c-0.2,0-0.3,0-0.5,0l-0.7,0l-0.5,0c-0.1,0-0.3,0-0.5,0H1942
	c-15.6,0-28.3-12.7-28.3-28.3c0-10.8,7.1-22.1,16.8-26.7l1.5-0.7v-1.6c0-0.3,0-0.7,0-1l0-0.4l0-0.5c0-0.2,0-0.4,0-0.6
	c0-10.1,8.2-18.3,18.3-18.3c0.8,0,1.6,0.1,2.4,0.2c0.2,0,0.4,0.1,0.6,0.1c0.7,0.1,1.4,0.3,2.1,0.5c0.1,0,0.2,0,0.3,0.1
	c0.7,0.2,1.5,0.5,2.2,0.8c0.2,0.1,0.4,0.2,0.5,0.3c0.6,0.3,1.2,0.6,1.8,1c5,3.3,8.4,8.9,8.4,15.3c0,1.4,1.2,2.6,2.6,2.6
	c1.4,0,2.6-1.2,2.6-2.6c0-7.2-3.2-13.6-8.3-17.9c7.5-9.8,19.8-16,32-16c20.2,0,37,16,38.7,36.2c-2.7-0.2-6.7-0.3-10.6,0.3
	c-1.4,0.2-2.4,1.5-2.2,3c0.2,1.3,1.3,2.2,2.6,2.2c0.1,0,0.3,0,0.4,0c5.8-0.9,11.9-0.1,12.2,0c12.1,2.3,21.3,13.5,21.3,26
	C2059.8,1163.6,2048.1,1175.3,2033.6,1175.3z"/>
</svg>
